<svg width="135" height="32" viewBox="0 0 135 32" fill="none" xmlns="http://www.w3.org/2000/svg">
<path d="M0 13.7501C0 8.36543 4.36515 4.00028 9.74983 4.00028H21.9371V10.5002H9.74983C7.95494 10.5002 6.49989 11.9552 6.49989 13.7501C6.49989 15.545 7.95494 17.0001 9.74983 17.0001H12.5935V23.4999H9.74983C4.36515 23.4999 0 19.1348 0 13.7501Z" fill="#2B7FFF"/>
<path d="M25.187 20.2499C25.187 14.8652 20.8219 10.5001 15.4372 10.5001H12.5935V17H15.4372C17.2321 17 18.6871 18.455 18.6871 20.2499C18.6871 22.0448 17.2321 23.4999 15.4372 23.4999H3.24989V29.9998H15.4372C20.8219 29.9998 25.187 25.6346 25.187 20.2499Z" fill="#003BBD"/>
<path d="M40.0008 19.838C40.0008 20.462 40.1135 20.9907 40.3388 21.424C40.5641 21.8573 40.8588 22.2127 41.2228 22.49C41.6041 22.75 42.0461 22.9493 42.5488 23.088C43.0515 23.2093 43.5715 23.27 44.1088 23.27C44.4728 23.27 44.8628 23.244 45.2788 23.192C45.6948 23.1227 46.0848 23.0013 46.4488 22.828C46.8128 22.6547 47.1161 22.4207 47.3588 22.126C47.6015 21.814 47.7228 21.424 47.7228 20.956C47.7228 20.4533 47.5581 20.046 47.2288 19.734C46.9168 19.422 46.5008 19.162 45.9808 18.954C45.4608 18.746 44.8715 18.564 44.2128 18.408C43.5541 18.252 42.8868 18.0787 42.2108 17.888C41.5175 17.7147 40.8415 17.5067 40.1828 17.264C39.5241 17.004 38.9348 16.6747 38.4148 16.276C37.8948 15.8773 37.4701 15.3833 37.1408 14.794C36.8288 14.1873 36.6728 13.4593 36.6728 12.61C36.6728 11.6567 36.8721 10.8333 37.2708 10.14C37.6868 9.42933 38.2241 8.84 38.8828 8.372C39.5415 7.904 40.2868 7.55733 41.1188 7.332C41.9508 7.10667 42.7828 6.994 43.6148 6.994C44.5855 6.994 45.5128 7.10667 46.3968 7.332C47.2981 7.54 48.0955 7.88667 48.7888 8.372C49.4821 8.85733 50.0281 9.48133 50.4268 10.244C50.8428 10.9893 51.0508 11.8993 51.0508 12.974H47.0988C47.0641 12.4193 46.9428 11.96 46.7348 11.596C46.5441 11.232 46.2841 10.946 45.9548 10.738C45.6255 10.53 45.2441 10.3827 44.8108 10.296C44.3948 10.2093 43.9355 10.166 43.4328 10.166C43.1035 10.166 42.7741 10.2007 42.4448 10.27C42.1155 10.3393 41.8121 10.4607 41.5348 10.634C41.2748 10.8073 41.0581 11.024 40.8848 11.284C40.7115 11.544 40.6248 11.8733 40.6248 12.272C40.6248 12.636 40.6941 12.9307 40.8328 13.156C40.9715 13.3813 41.2401 13.5893 41.6388 13.78C42.0548 13.9707 42.6181 14.1613 43.3288 14.352C44.0568 14.5427 45.0015 14.7853 46.1628 15.08C46.5095 15.1493 46.9861 15.2793 47.5928 15.47C48.2168 15.6433 48.8321 15.9293 49.4388 16.328C50.0455 16.7267 50.5655 17.264 50.9988 17.94C51.4495 18.5987 51.6748 19.448 51.6748 20.488C51.6748 21.3373 51.5101 22.126 51.1808 22.854C50.8515 23.582 50.3575 24.2147 49.6988 24.752C49.0575 25.272 48.2515 25.6793 47.2808 25.974C46.3275 26.2687 45.2181 26.416 43.9528 26.416C42.9301 26.416 41.9335 26.286 40.9628 26.026C40.0095 25.7833 39.1601 25.3933 38.4148 24.856C37.6868 24.3187 37.1061 23.634 36.6728 22.802C36.2395 21.97 36.0315 20.982 36.0488 19.838H40.0008ZM53.5576 16.692C53.6096 15.8253 53.8262 15.106 54.2076 14.534C54.5889 13.962 55.0742 13.5027 55.6636 13.156C56.2529 12.8093 56.9116 12.5667 57.6396 12.428C58.3849 12.272 59.1302 12.194 59.8756 12.194C60.5516 12.194 61.2362 12.246 61.9296 12.35C62.6229 12.4367 63.2556 12.6187 63.8276 12.896C64.3996 13.1733 64.8676 13.5633 65.2316 14.066C65.5956 14.5513 65.7776 15.2013 65.7776 16.016V23.01C65.7776 23.6167 65.8122 24.1973 65.8816 24.752C65.9509 25.3067 66.0722 25.7227 66.2456 26H62.5016C62.4322 25.792 62.3716 25.584 62.3196 25.376C62.2849 25.1507 62.2589 24.9253 62.2416 24.7C61.6522 25.3067 60.9589 25.7313 60.1616 25.974C59.3642 26.2167 58.5496 26.338 57.7176 26.338C57.0762 26.338 56.4782 26.26 55.9236 26.104C55.3689 25.948 54.8836 25.7053 54.4676 25.376C54.0516 25.0467 53.7222 24.6307 53.4796 24.128C53.2542 23.6253 53.1416 23.0273 53.1416 22.334C53.1416 21.5713 53.2716 20.9473 53.5316 20.462C53.8089 19.9593 54.1556 19.5607 54.5716 19.266C55.0049 18.9713 55.4902 18.7547 56.0276 18.616C56.5822 18.46 57.1369 18.3387 57.6916 18.252C58.2462 18.1653 58.7922 18.096 59.3296 18.044C59.8669 17.992 60.3436 17.914 60.7596 17.81C61.1756 17.706 61.5049 17.5587 61.7476 17.368C61.9902 17.16 62.1029 16.8653 62.0856 16.484C62.0856 16.0853 62.0162 15.7733 61.8776 15.548C61.7562 15.3053 61.5829 15.1233 61.3576 15.002C61.1496 14.8633 60.8982 14.7767 60.6036 14.742C60.3262 14.69 60.0229 14.664 59.6936 14.664C58.9656 14.664 58.3936 14.82 57.9776 15.132C57.5616 15.444 57.3189 15.964 57.2496 16.692H53.5576ZM62.0856 19.422C61.9296 19.5607 61.7302 19.6733 61.4876 19.76C61.2622 19.8293 61.0109 19.89 60.7336 19.942C60.4736 19.994 60.1962 20.0373 59.9016 20.072C59.6069 20.1067 59.3122 20.15 59.0176 20.202C58.7402 20.254 58.4629 20.3233 58.1856 20.41C57.9256 20.4967 57.6916 20.618 57.4836 20.774C57.2929 20.9127 57.1369 21.0947 57.0156 21.32C56.8942 21.5453 56.8336 21.8313 56.8336 22.178C56.8336 22.5073 56.8942 22.7847 57.0156 23.01C57.1369 23.2353 57.3016 23.4173 57.5096 23.556C57.7176 23.6773 57.9602 23.764 58.2376 23.816C58.5149 23.868 58.8009 23.894 59.0956 23.894C59.8236 23.894 60.3869 23.7727 60.7856 23.53C61.1842 23.2873 61.4789 23.0013 61.6696 22.672C61.8602 22.3253 61.9729 21.9787 62.0076 21.632C62.0596 21.2853 62.0856 21.008 62.0856 20.8V19.422ZM69.4493 15.028H67.2393V12.558H69.4493V11.518C69.4493 10.322 69.8219 9.34267 70.5673 8.58C71.3126 7.81733 72.4393 7.436 73.9473 7.436C74.2766 7.436 74.6059 7.45333 74.9353 7.488C75.2646 7.50533 75.5853 7.52267 75.8973 7.54V10.296C75.4639 10.244 75.0133 10.218 74.5453 10.218C74.0426 10.218 73.6786 10.3393 73.4533 10.582C73.2453 10.8073 73.1413 11.1973 73.1413 11.752V12.558H75.6893V15.028H73.1413V26H69.4493V15.028ZM86.3495 17.836C86.1761 16.9 85.8641 16.1893 85.4135 15.704C84.9801 15.2187 84.3128 14.976 83.4115 14.976C82.8221 14.976 82.3281 15.08 81.9295 15.288C81.5481 15.4787 81.2361 15.7213 80.9935 16.016C80.7681 16.3107 80.6035 16.6227 80.4995 16.952C80.4128 17.2813 80.3608 17.576 80.3435 17.836H86.3495ZM80.3435 20.176C80.3955 21.372 80.6988 22.2387 81.2535 22.776C81.8081 23.3133 82.6055 23.582 83.6455 23.582C84.3908 23.582 85.0321 23.4 85.5695 23.036C86.1068 22.6547 86.4361 22.256 86.5575 21.84H89.8075C89.2875 23.452 88.4901 24.6047 87.4155 25.298C86.3408 25.9913 85.0408 26.338 83.5155 26.338C82.4581 26.338 81.5048 26.1733 80.6555 25.844C79.8061 25.4973 79.0868 25.012 78.4975 24.388C77.9081 23.764 77.4488 23.0187 77.1195 22.152C76.8075 21.2853 76.6515 20.332 76.6515 19.292C76.6515 18.2867 76.8161 17.3507 77.1455 16.484C77.4748 15.6173 77.9428 14.872 78.5495 14.248C79.1561 13.6067 79.8755 13.104 80.7075 12.74C81.5568 12.376 82.4928 12.194 83.5155 12.194C84.6595 12.194 85.6561 12.4193 86.5055 12.87C87.3548 13.3033 88.0481 13.8927 88.5855 14.638C89.1401 15.3833 89.5388 16.2327 89.7815 17.186C90.0241 18.1393 90.1108 19.136 90.0415 20.176H80.3435ZM92.3351 7.436H96.0271V26H92.3351V7.436ZM102.73 10.478H99.0383V7.436H102.73V10.478ZM99.0383 12.558H102.73V26H99.0383V12.558ZM105.637 12.558H109.147V14.43H109.225C109.693 13.65 110.3 13.0867 111.045 12.74C111.791 12.376 112.553 12.194 113.333 12.194C114.321 12.194 115.127 12.3327 115.751 12.61C116.393 12.87 116.895 13.2427 117.259 13.728C117.623 14.196 117.875 14.7767 118.013 15.47C118.169 16.146 118.247 16.9 118.247 17.732V26H114.555V18.408C114.555 17.2987 114.382 16.4753 114.035 15.938C113.689 15.3833 113.073 15.106 112.189 15.106C111.184 15.106 110.456 15.4093 110.005 16.016C109.555 16.6053 109.329 17.5847 109.329 18.954V26H105.637V12.558ZM121.388 7.436H125.08V17.394L129.734 12.558H134.102L129.032 17.498L134.674 26H130.202L126.51 19.994L125.08 21.372V26H121.388V7.436Z" fill="black"/>
</svg>
