<svg xmlns="http://www.w3.org/2000/svg" width="134" height="32" viewBox="0 0 134 32" fill="none">
  <path d="M10.2736 5.62075C4.8747 8.7378 2.84093 15.445 5.44682 20.9857C7.16609 24.0483 11.8736 25.5695 14.6494 21.6524C15.158 20.9347 15.4455 20.2066 15.5938 19.471C16.2627 16.1524 14.0975 12.6804 16.6027 9.3211C17.3998 8.17357 19.9946 6.08434 23.9972 6.90771C21.157 4.46149 17.2918 3.487 13.6212 4.31101C12.4739 4.56856 11.3456 5.00182 10.2736 5.62075Z" fill="#9EABDE"/>
  <path d="M23.9971 6.90782C19.9946 6.08445 17.3998 8.17368 16.6027 9.32121C14.0975 12.6805 16.2627 16.1525 15.5938 19.4711C16.0916 16.8584 14.0389 15.3033 11.613 12.2554C9.87199 10.068 9.28463 5.82166 13.6211 4.31112C17.2918 3.48711 21.157 4.46161 23.9971 6.90782Z" fill="#6A749A"/>
  <path d="M27.5937 11.5127C30.1493 17.0767 28.0548 23.7652 22.6279 26.8332C21.5503 27.4424 20.4182 27.8655 19.2686 28.1126C23.6186 26.6414 23.0697 22.3899 21.3487 20.1869C18.9505 17.1171 16.912 15.5435 17.4334 12.9354C17.5884 12.2011 17.8825 11.4756 18.3976 10.7626C21.2087 6.87086 25.9023 8.43457 27.5937 11.5127Z" fill="#6284F5"/>
  <path d="M8.91644 25.4221C12.9114 26.2817 15.525 24.2161 16.3325 23.0758C18.868 19.7394 16.7343 16.2479 17.4333 12.9355C16.9118 15.5436 18.9503 17.1172 21.3485 20.187C23.0696 22.3901 23.6185 26.6416 19.2685 28.1127C15.5905 28.9035 11.7343 27.894 8.91644 25.4221Z" fill="#4A60AA"/>
  <path d="M122.034 22.7307L120.418 13.25H122.399L123.591 21.4038H123.899L125.553 13.25H128.764L130.399 21.4038H130.707L131.899 13.25H133.88L132.264 22.7307H128.937L127.303 14.5961H126.995L125.36 22.7307H122.034Z" fill="black"/>
  <path d="M113.719 22.9999C112.77 22.9999 111.924 22.8076 111.18 22.423C110.449 22.0255 109.873 21.4614 109.449 20.7307C109.026 19.9999 108.815 19.1345 108.815 18.1345V17.8461C108.815 16.8461 109.026 15.9871 109.449 15.2692C109.873 14.5384 110.449 13.9743 111.18 13.5769C111.924 13.1794 112.77 12.9807 113.719 12.9807C114.667 12.9807 115.514 13.1794 116.257 13.5769C117.001 13.9743 117.584 14.5384 118.007 15.2692C118.43 15.9871 118.642 16.8461 118.642 17.8461V18.1345C118.642 19.1345 118.43 19.9999 118.007 20.7307C117.584 21.4614 117.001 22.0255 116.257 22.423C115.514 22.8076 114.667 22.9999 113.719 22.9999ZM113.719 21.2307C114.59 21.2307 115.296 20.955 115.834 20.4037C116.385 19.8397 116.661 19.064 116.661 18.0768V17.9038C116.661 16.9166 116.392 16.1474 115.853 15.5961C115.315 15.032 114.603 14.7499 113.719 14.7499C112.86 14.7499 112.155 15.032 111.603 15.5961C111.065 16.1474 110.796 16.9166 110.796 17.9038V18.0768C110.796 19.064 111.065 19.8397 111.603 20.4037C112.155 20.955 112.86 21.2307 113.719 21.2307Z" fill="black"/>
  <path d="M104.356 22.7306V9.26917H106.337V22.7306H104.356Z" fill="black"/>
  <path d="M98.1236 22.7306V14.923H95.4698V13.2499H98.1236V11.173C98.1236 10.5961 98.2967 10.1345 98.6429 9.78839C98.989 9.44224 99.4505 9.26917 100.027 9.26917H102.47V10.9422H100.662C100.29 10.9422 100.104 11.1345 100.104 11.5192V13.2499H102.835V14.923H100.104V22.7306H98.1236Z" fill="black"/>
  <path d="M89.8658 22.9999C88.9043 22.9999 88.0646 22.8012 87.3466 22.4037C86.6287 21.9935 86.0646 21.423 85.6543 20.6922C85.2569 19.9486 85.0582 19.0897 85.0582 18.1153V17.8845C85.0582 16.8974 85.2569 16.0384 85.6543 15.3076C86.0518 14.564 86.603 13.9935 87.3082 13.5961C88.0261 13.1858 88.853 12.9807 89.7889 12.9807C90.6992 12.9807 91.494 13.1858 92.1735 13.5961C92.8658 13.9935 93.4043 14.5512 93.7889 15.2692C94.1735 15.9871 94.3658 16.8268 94.3658 17.7884V18.5384H87.0774C87.103 19.3717 87.3787 20.0384 87.9043 20.5384C88.4428 21.0255 89.1094 21.2691 89.9043 21.2691C90.6479 21.2691 91.2056 21.1025 91.5774 20.7691C91.962 20.4358 92.2569 20.0512 92.462 19.6153L94.0966 20.4614C93.9171 20.8204 93.6543 21.1986 93.3081 21.5961C92.9748 21.9935 92.5325 22.3268 91.9812 22.596C91.4299 22.8653 90.7248 22.9999 89.8658 22.9999ZM87.0966 17.0192H92.3466C92.2953 16.3012 92.0389 15.7435 91.5774 15.3461C91.1158 14.9358 90.5133 14.7307 89.7697 14.7307C89.0261 14.7307 88.4171 14.9358 87.9428 15.3461C87.4812 15.7435 87.1992 16.3012 87.0966 17.0192Z" fill="black"/>
  <path d="M80.5994 22.7306V9.26917H82.5801V22.7306H80.5994Z" fill="black"/>
  <path d="M73.7605 22.9999C72.8374 22.9999 72.1259 22.8332 71.6259 22.4999C71.1387 22.1665 70.7733 21.7947 70.5297 21.3845H70.222V22.7306H68.2797V9.26917H70.2605V14.5384H70.5682C70.722 14.282 70.9272 14.0384 71.1836 13.8076C71.44 13.564 71.7797 13.3653 72.2028 13.2115C72.6259 13.0576 73.1451 12.9807 73.7605 12.9807C74.5553 12.9807 75.2861 13.173 75.9528 13.5576C76.6194 13.9422 77.1515 14.4999 77.5489 15.2307C77.9464 15.9614 78.1451 16.8332 78.1451 17.846V18.1345C78.1451 19.1601 77.9399 20.0383 77.5297 20.7691C77.1323 21.4871 76.6002 22.0383 75.9335 22.4229C75.2797 22.8076 74.5553 22.9999 73.7605 22.9999ZM73.1836 21.2691C74.0425 21.2691 74.7477 20.9935 75.2989 20.4422C75.863 19.8909 76.1451 19.1024 76.1451 18.0768V17.9037C76.1451 16.8909 75.8694 16.1089 75.3182 15.5576C74.7669 15.0063 74.0554 14.7307 73.1836 14.7307C72.3374 14.7307 71.6323 15.0063 71.0682 15.5576C70.5169 16.1089 70.2413 16.8909 70.2413 17.9037V18.0768C70.2413 19.1024 70.5169 19.8909 71.0682 20.4422C71.6323 20.9935 72.3374 21.2691 73.1836 21.2691Z" fill="black"/>
  <path d="M60.1231 22.9999C59.4436 22.9999 58.8346 22.8845 58.2962 22.6537C57.7705 22.423 57.3475 22.0832 57.0269 21.6345C56.7193 21.1858 56.5654 20.6409 56.5654 19.9999C56.5654 19.3461 56.7193 18.8076 57.0269 18.3845C57.3475 17.9486 57.7769 17.6217 58.3154 17.4038C58.8667 17.1858 59.4885 17.0768 60.1808 17.0768H63.0654V16.4615C63.0654 15.9102 62.8987 15.4679 62.5654 15.1345C62.232 14.8012 61.7192 14.6346 61.0269 14.6346C60.3474 14.6346 59.8282 14.7948 59.4692 15.1153C59.1103 15.4358 58.8731 15.8525 58.7577 16.3653L56.9116 15.7692C57.0654 15.2563 57.309 14.7948 57.6423 14.3846C57.9885 13.9615 58.4436 13.6217 59.0077 13.3653C59.5718 13.1089 60.2513 12.9807 61.0462 12.9807C62.2769 12.9807 63.2449 13.2948 63.95 13.923C64.6551 14.5512 65.0077 15.4422 65.0077 16.5961V20.4999C65.0077 20.8845 65.1872 21.0768 65.5461 21.0768H66.3538V22.7307H64.8731C64.4243 22.7307 64.059 22.6153 63.7769 22.3845C63.4949 22.1537 63.3538 21.8396 63.3538 21.4422V21.3845H63.0654C62.9628 21.5768 62.809 21.8012 62.6038 22.0576C62.3987 22.314 62.0974 22.5384 61.7 22.7307C61.3026 22.9101 60.7769 22.9999 60.1231 22.9999ZM60.4115 21.3653C61.2064 21.3653 61.8474 21.1409 62.3346 20.6922C62.8218 20.2307 63.0654 19.6025 63.0654 18.8076V18.6153H60.2962C59.7705 18.6153 59.3474 18.7307 59.0269 18.9615C58.7064 19.1794 58.5462 19.5063 58.5462 19.9422C58.5462 20.3781 58.7128 20.7243 59.0462 20.9807C59.3795 21.2371 59.8346 21.3653 60.4115 21.3653Z" fill="black"/>
  <path d="M51.9494 22.7307C51.3725 22.7307 50.911 22.5576 50.5648 22.2114C50.2315 21.8653 50.0648 21.4038 50.0648 20.8268V14.923H47.4495V13.25H50.0648V10.1154H52.0456V13.25H54.8725V14.923H52.0456V20.4807C52.0456 20.8653 52.2251 21.0576 52.5841 21.0576H54.5648V22.7307H51.9494Z" fill="black"/>
  <path d="M41.1924 22.9998C40.1795 22.9998 39.2821 22.8203 38.5001 22.4613C37.718 22.1024 37.1026 21.5767 36.6539 20.8844C36.218 20.1793 36.0001 19.3267 36.0001 18.3268V17.846H38.0578V18.3268C38.0578 19.2755 38.3398 19.987 38.9039 20.4614C39.4808 20.9357 40.2436 21.1729 41.1924 21.1729C42.1539 21.1729 42.8782 20.9742 43.3654 20.5767C43.8526 20.1665 44.0962 19.6408 44.0962 18.9998C44.0962 18.5768 43.9808 18.2306 43.75 17.9614C43.5193 17.6921 43.1923 17.4806 42.7693 17.3268C42.3462 17.1601 41.8398 17.0062 41.25 16.8652L40.5385 16.6921C39.6795 16.487 38.9295 16.237 38.2885 15.9421C37.6603 15.6345 37.1731 15.2306 36.827 14.7306C36.4808 14.2306 36.3078 13.5896 36.3078 12.8075C36.3078 12.0127 36.5001 11.3332 36.8847 10.7691C37.2821 10.205 37.827 9.76911 38.5193 9.46141C39.2116 9.15372 40.0257 8.99988 40.9616 8.99988C41.8975 8.99988 42.7308 9.16013 43.4616 9.48065C44.2052 9.80116 44.7885 10.2755 45.2116 10.9037C45.6346 11.5319 45.8462 12.3204 45.8462 13.2691V13.9614H43.7885V13.2691C43.7885 12.6922 43.6667 12.2242 43.4231 11.8652C43.1923 11.5063 42.8654 11.2435 42.4424 11.0768C42.0193 10.9101 41.5257 10.8268 40.9616 10.8268C40.1411 10.8268 39.5001 10.9999 39.0385 11.346C38.5898 11.6794 38.3654 12.1473 38.3654 12.7499C38.3654 13.1601 38.4616 13.4999 38.6539 13.7691C38.859 14.0255 39.1539 14.237 39.5385 14.4037C39.9231 14.5704 40.4039 14.7178 40.9808 14.846L41.6924 15.0191C42.5641 15.2114 43.3334 15.4614 44 15.7691C44.6667 16.0639 45.1923 16.4678 45.577 16.9806C45.9616 17.4934 46.1539 18.1537 46.1539 18.9614C46.1539 19.7691 45.9487 20.4742 45.5385 21.0767C45.1411 21.6793 44.5705 22.1537 43.827 22.4998C43.0834 22.8331 42.2052 22.9998 41.1924 22.9998Z" fill="black"/>
</svg>