<svg xmlns="http://www.w3.org/2000/svg" width="129" height="24" viewBox="0 0 129 24" fill="none">
  <rect x="53.7177" width="75.1304" height="24" rx="4" fill="#6284F5"/>
  <path d="M116.819 18.0397V14.6672H110.057V13.5486H116.819V10.6269H110.424V9.50825H116.819V6.55312C115.071 6.6199 113.129 6.6366 110.992 6.60321L111.009 5.50129C113.357 5.53469 115.478 5.50686 117.37 5.41782C119.429 5.31764 121.538 5.11729 123.698 4.81677L123.848 5.91869C121.8 6.20808 119.83 6.40286 117.938 6.50303V9.50825H124.198V10.6269H117.938V13.5486H124.566V14.6672H117.938V19.1583H113.747V18.0397H116.819Z" fill="white"/>
  <path d="M92.9442 17.6222L93.7789 17.5888V5.28414H99.7059V17.2382C99.973 17.2271 100.235 17.2104 100.491 17.1881L100.591 18.2901C98.5873 18.457 96.0495 18.6017 92.9775 18.7241L92.9442 17.6222ZM94.8809 17.5387C96.2054 17.472 97.4464 17.3996 98.604 17.3217V14.4H95.7156V13.2981H98.604V10.56H95.7156V9.45805H98.604V6.40275H94.8975L94.8809 17.5387ZM102.494 11.9457C102.639 10.7214 102.745 9.5304 102.811 8.37283C102.811 8.32831 102.811 8.25597 102.811 8.15579H100.708V7.05388H102.845C102.845 7.05388 102.845 6.89249 102.845 6.5697V4.74988H103.947V6.5697C103.947 6.5697 103.947 6.7311 103.947 7.05388H107.853V19.1081H105.449V17.9895H106.735V8.15579H103.93C103.93 8.17805 103.924 8.20031 103.913 8.22257C103.913 8.31162 103.913 8.3784 103.913 8.42292C103.858 9.61388 103.752 10.8382 103.596 12.096C103.429 13.3648 103.229 14.5725 102.995 15.7189C102.75 16.9433 102.427 18.1398 102.027 19.3085L100.975 18.9245C101.364 17.8003 101.676 16.6594 101.91 15.5019C102.132 14.4 102.327 13.2146 102.494 11.9457Z" fill="white"/>
  <path d="M86.5997 7.88857C86.4884 8.4117 86.3771 8.93483 86.2658 9.45796L86.0655 10.3261H87.902V8.80683H89.0039V10.3261H91.0575V11.4447H89.0039V13.8155H91.2244V14.9341H89.0039V17.1046H87.902V14.9341H84.663V13.8155H87.902V11.4447H84.6463C84.8133 10.7992 84.9302 10.315 84.997 9.99222L85.1806 9.20753C85.2919 8.69553 85.4032 8.17796 85.5145 7.65483C85.5368 7.56579 85.5646 7.42109 85.598 7.22074C85.6203 7.10944 85.637 7.02596 85.6481 6.97031H84.5963V5.86839H85.8651C85.8763 5.835 85.8874 5.77935 85.8985 5.70144C85.9987 5.18944 86.071 4.80544 86.1156 4.54944L87.2175 4.74979C87.1841 4.92787 87.134 5.18944 87.0672 5.53448C87.0338 5.67918 87.0116 5.79048 87.0004 5.86839H91.3079V6.97031H86.7834C86.7723 7.01483 86.7611 7.08161 86.75 7.17066C86.6832 7.49344 86.6331 7.73274 86.5997 7.88857ZM91.4415 19.0914H82.4425V10.8771L81.1403 10.8938V9.79187L83.5444 9.75848V17.9727H91.4415V19.0914ZM82.6763 5.03361C82.7096 5.50109 82.782 5.963 82.8933 6.41935C82.9935 6.85344 83.1437 7.27083 83.3441 7.67153L82.359 8.18909C82.1142 7.71048 81.9305 7.20405 81.8081 6.66979C81.6856 6.15779 81.6022 5.64022 81.5576 5.11709L82.6763 5.03361ZM80.5893 7.08718H76.1483V4.683H77.2502V5.96857H80.5893V7.08718ZM77.8011 12.8472V10.2093H76.4154V9.10735H80.3222V10.2093H78.9197V12.8472H80.4891V13.9491H78.9197V18.0061H80.2053V19.108H77.8011V13.9491H76.2484V12.8472H77.8011Z" fill="white"/>
  <path d="M66.5651 11.5617H73.9279V10.4598H66.5651V11.5617ZM65.9306 12.9808H74.5456V14.0828H68.5686L68.2847 15.4685H74.2618V19.1082H71.29V18.0062H73.1599V16.5704H66.9157L67.45 14.0828H65.9306V12.9808ZM67.0159 8.25598C67.4945 7.96659 67.9341 7.62711 68.3348 7.23754C68.4573 7.11511 68.5741 6.98711 68.6854 6.85354H65.6468V5.73493H69.37C69.5369 5.33424 69.6204 4.91128 69.6204 4.46606H70.7223C70.7223 4.90015 70.6611 5.32311 70.5387 5.73493H74.5957V6.85354H70.0545C69.7873 7.28763 69.4757 7.67719 69.1195 8.02224C68.652 8.46746 68.1456 8.85702 67.6002 9.19093C67.066 9.51372 66.515 9.80311 65.9473 10.0591L65.4966 9.04067C66.0197 8.80693 66.5261 8.54537 67.0159 8.25598ZM72.876 8.1558C73.5216 8.42293 74.156 8.72902 74.7793 9.07406L74.2284 10.0424C73.6496 9.71963 73.0541 9.43024 72.442 9.17424C71.8409 8.91824 71.2176 8.6845 70.572 8.47302L70.906 7.42119C71.5404 7.62154 72.1971 7.86641 72.876 8.1558ZM62.8753 10.9941V12.9808H64.8454V14.0828H62.8753V17.6222C63.532 17.5555 64.1776 17.433 64.812 17.2549L65.146 18.3068C64.4559 18.5182 63.571 18.6741 62.4913 18.7742C62.1018 18.8076 61.6677 18.8355 61.1891 18.8577L61.0221 18.8744L60.7383 18.8911L60.1206 18.9078H59.9536H59.8701H59.8033C59.8033 18.9078 59.8033 18.9022 59.8033 18.8911V12.6803H60.922V17.7725L61.139 17.7558C61.3505 17.7447 61.5564 17.7335 61.7567 17.7224L61.7734 10.9941H59.8033V5.03372H64.8287V10.9941H62.8753ZM60.922 9.89215H63.7101V6.13563H60.922V9.89215Z" fill="white"/>
  <path d="M35.9703 18.2399C35.653 20.2267 35.1438 21.9463 34.4426 23.3989L32.965 22.6726C33.5828 21.387 34.0336 19.826 34.3174 17.9895C34.451 17.1714 34.5344 16.3449 34.5678 15.5102C34.6012 15.0928 34.6179 14.6837 34.6179 14.283V12.9808H36.2708V14.283C36.2708 14.8674 36.2541 15.3015 36.2207 15.5853C36.1873 16.4702 36.1038 17.355 35.9703 18.2399ZM41.6802 18.2399C41.363 20.2267 40.8621 21.9463 40.1776 23.3989L38.675 22.6726C39.2927 21.3703 39.7435 19.8093 40.0273 17.9895C40.1609 17.1714 40.2443 16.3449 40.2777 15.5102C40.3111 15.1095 40.3278 14.7004 40.3278 14.283V12.9808H41.9807V14.258C41.9807 14.7756 41.9723 15.218 41.9557 15.5853C41.9056 16.4702 41.8137 17.355 41.6802 18.2399ZM37.5981 8.82355C37.1807 9.05729 36.8551 9.24929 36.6214 9.39955H47.7157V22.9982H43.5334V21.3453H46.0377V11.0524H33.9918V9.97555C33.9751 9.84199 33.9835 9.70008 34.0169 9.54981C34.1003 9.28268 34.2506 9.05729 34.4677 8.87364C34.5344 8.79016 34.6096 8.72338 34.693 8.67329C34.7431 8.62321 34.8016 8.57312 34.8683 8.52303C34.885 8.52303 34.8934 8.51468 34.8934 8.49799C35.027 8.41451 35.1605 8.33103 35.2941 8.24755C35.6614 8.01381 36.1706 7.72164 36.8217 7.37103C37.2725 7.1206 37.9403 6.76999 38.8252 6.31921C39.276 6.08547 39.6099 5.91016 39.827 5.79329C41.0624 5.14216 42.0391 4.59955 42.757 4.16547C42.757 4.16547 42.7654 4.16547 42.7821 4.16547C43.0659 3.98181 43.283 3.8399 43.4332 3.73973L43.5835 3.61451L43.6837 3.53938H43.7087H33.3908V1.86146H45.9626V3.0886C45.9626 3.28894 45.9209 3.48094 45.8374 3.6646C45.7205 3.88164 45.5786 4.08199 45.4117 4.26564C45.395 4.28233 45.3616 4.31573 45.3115 4.36581C45.228 4.44929 45.1612 4.50773 45.1111 4.54112L44.9609 4.69138C44.9275 4.70807 44.8774 4.74147 44.8106 4.79155C44.8106 4.79155 44.8023 4.79155 44.7856 4.79155L44.6603 4.91677L44.5602 4.96686L44.3598 5.11712C44.1929 5.21729 43.9424 5.3759 43.6085 5.59294C42.8071 6.09381 41.8054 6.65312 40.6033 7.27086C40.4197 7.35434 40.1525 7.4879 39.8019 7.67155C38.8169 8.18912 38.0823 8.57312 37.5981 8.82355ZM27.0297 22.7227C26.6624 22.7561 26.3786 22.7811 26.1783 22.7978C25.9111 22.8145 25.6273 22.8229 25.3268 22.8229V21.17C25.3602 21.17 25.4186 21.17 25.5021 21.17C25.7692 21.1533 25.9696 21.1449 26.1031 21.1449C26.1198 21.1449 26.1449 21.1366 26.1783 21.1199C26.4955 21.1032 26.7376 21.0865 26.9045 21.0698C27.1717 21.0531 27.4471 21.0281 27.731 20.9947V8.59816H25.3769V6.92025H27.756V1.3606H29.4089V6.92025H31.763V8.59816H29.4089L29.3838 20.7442C30.1184 20.6107 30.8447 20.427 31.5626 20.1933L32.0635 21.7961C30.9783 22.13 29.868 22.3804 28.7327 22.5474C28.1817 22.6309 27.6141 22.6893 27.0297 22.7227Z" fill="black"/>
  <path d="M2.38692 13.9576C1.86936 12.3715 1.44362 10.7688 1.10971 9.14929L2.73753 8.79868C3.07145 10.3681 3.48049 11.9124 3.96466 13.4317L2.38692 13.9576ZM2.73753 1.88668C3.07145 3.45607 3.48049 5.00042 3.96466 6.51972L2.38692 7.04564C1.86936 5.45955 1.44362 3.85677 1.10971 2.23729L2.73753 1.88668ZM0.433533 22.1719C1.01788 21.287 1.5104 20.3103 1.9111 19.2418C2.32849 18.1566 2.70414 16.9462 3.03805 15.6105L4.66588 16.0112C4.36536 17.23 3.99805 18.4321 3.56397 19.6175C3.11318 20.8362 2.53719 21.9966 1.83597 23.0985L0.433533 22.1719ZM16.1859 3.11381H22.9476V6.87033H21.2697V4.79172H16.1859V9.54999H21.8958V12.0293C21.8958 12.0794 21.8958 12.1462 21.8958 12.2296C21.8958 12.3966 21.8958 12.5218 21.8958 12.6053C21.8791 13.4401 21.7372 14.2498 21.4701 15.0345C21.2029 15.8025 20.8189 16.5204 20.3181 17.1882C20.0843 17.5055 19.8255 17.806 19.5417 18.0898C19.5083 18.1232 19.4582 18.1733 19.3914 18.2401C19.2746 18.3736 19.1827 18.4655 19.116 18.5156L18.6902 18.9162C18.54 19.0331 18.3396 19.1917 18.0892 19.3921C19.6252 20.2936 21.2363 21.0449 22.9226 21.646L22.3466 23.1987C20.0593 22.3639 18.1393 21.4373 16.5866 20.4189C16.1024 20.7361 15.5181 21.07 14.8335 21.4206C14.7501 21.454 14.6332 21.5124 14.4829 21.5959C14.1824 21.7462 13.957 21.8547 13.8068 21.9215L12.78 22.3722C12.7299 22.4056 12.6464 22.4474 12.5295 22.4975C12.4127 22.5476 12.3208 22.5809 12.2541 22.5976L11.7281 22.798L10.7014 23.1987L10.1254 21.646L11.1271 21.2453L11.628 21.0449C11.7281 21.0115 11.8784 20.9531 12.0788 20.8696C12.0954 20.8529 12.1121 20.8446 12.1288 20.8446L13.1055 20.4189C13.1389 20.4022 13.1807 20.3855 13.2308 20.3688C13.6148 20.1851 13.8986 20.0432 14.0822 19.943C14.4161 19.7761 14.7668 19.5841 15.1341 19.367C14.316 18.7159 13.5897 17.9813 12.9553 17.1632L12.6548 16.7875L12.3793 16.3869L12.229 16.1865L12.1038 15.9611L11.8534 15.5604C11.5528 14.9928 11.2774 14.4168 11.0269 13.8324L12.5546 13.1813C12.7716 13.7156 13.0221 14.2331 13.3059 14.734L13.5313 15.0846L13.6314 15.2599L13.7567 15.4352L13.9821 15.7858L14.2575 16.1364C14.9421 16.9879 15.7351 17.7476 16.6367 18.4154C16.9706 18.1649 17.2878 17.9145 17.5883 17.6641L17.989 17.3135C18.0391 17.2634 18.1059 17.1882 18.1894 17.0881C18.2561 17.0213 18.3062 16.9712 18.3396 16.9378C18.5734 16.7041 18.7904 16.4536 18.9908 16.1865C19.3748 15.6689 19.6836 15.1013 19.9174 14.4835C20.1177 13.8658 20.2262 13.2314 20.2429 12.5802C20.2429 12.5802 20.2429 12.3966 20.2429 12.0293V11.2279H10.7264V9.54999H14.508V4.79172H8.62275V11.1277C8.62275 11.2112 8.62275 11.3448 8.62275 11.5284C8.62275 12.4133 8.6144 13.0811 8.59771 13.5319C8.56432 15.1681 8.4224 16.7876 8.17197 18.3903C7.93823 20.0265 7.55423 21.6209 7.01997 23.1736L5.46727 22.6227C5.95145 21.1702 6.3104 19.6759 6.54414 18.1399C6.77788 16.6039 6.91145 15.0512 6.94484 13.4818C6.96153 12.9642 6.96988 12.1796 6.96988 11.1277V3.11381H14.508V1.13538H16.1859V3.11381Z" fill="black"/>
  <path d="M34.6182 12.9814V14.2837L34.6049 14.89C34.5966 15.0947 34.585 15.3017 34.5683 15.5106L34.5336 16.1352C34.4898 16.7581 34.4177 17.3764 34.3176 17.9899L34.2035 18.6655C33.9186 20.2119 33.5057 21.5475 32.9653 22.6723L34.4429 23.3988C35.0565 22.1279 35.5225 20.6522 35.842 18.9722L35.9704 18.2405C36.104 17.3557 36.1877 16.4698 36.2211 15.585C36.2378 15.4431 36.2495 15.2637 36.2578 15.0469L36.271 14.2837V12.9814H34.6182ZM40.2778 15.5106L40.2432 16.1352C40.1994 16.7581 40.1273 17.3764 40.0272 17.9899L39.913 18.6604C39.6282 20.1958 39.2153 21.533 38.6749 22.6723L40.178 23.3988C40.8624 21.9465 41.3628 20.227 41.68 18.2405L41.9888 18.2895C41.668 20.2983 41.16 22.0474 40.4602 23.5323L40.3257 23.8187L38.5384 22.9545L38.2592 22.819L38.3916 22.5388C38.9935 21.2701 39.438 19.7388 39.7184 17.941V17.9389C39.8499 17.1336 39.9321 16.3194 39.965 15.4973V15.4841L40.2778 15.5106ZM31.7629 8.59856V6.92023H29.409V1.36045H27.7561V6.92023H25.3767V8.59856H27.7306V20.995C27.4469 21.0283 27.1712 21.0537 26.9042 21.0704L26.1787 21.1203L26.1348 21.1386C26.1222 21.1429 26.1117 21.1447 26.1033 21.1448L25.8526 21.1509L25.502 21.1702H25.3268V22.8231C25.477 22.8231 25.6231 22.8211 25.7649 22.817L26.1787 22.7976C26.3789 22.7809 26.6626 22.7566 27.0295 22.7232C27.6137 22.6898 28.1815 22.6314 28.7323 22.5479C29.8676 22.381 30.9783 22.1298 32.0635 21.7959L31.5621 20.193C30.8443 20.4267 30.118 20.6107 29.3835 20.7443L29.409 8.59856H31.7629ZM41.9806 14.2582V12.9814H40.3278V14.2837L40.3155 14.9032C40.3072 15.1077 40.2945 15.3103 40.2778 15.5106L39.965 15.4841C39.9976 15.0926 40.0149 14.6925 40.0149 14.2837V12.6675H42.2935V14.2582C42.2935 14.7786 42.285 15.2258 42.268 15.5992V15.6033C42.2174 16.4978 42.1248 17.3922 41.9898 18.2864L41.9888 18.2895L41.68 18.2405C41.8136 17.3557 41.9051 16.4698 41.9552 15.585C41.9635 15.4013 41.9703 15.1989 41.9745 14.9776L41.9806 14.2582ZM36.5839 14.2837C36.5839 14.8544 36.5676 15.2949 36.534 15.5972L36.4983 16.2698C36.4539 16.942 36.3817 17.6143 36.2802 18.2864L36.2792 18.2895C35.9583 20.2992 35.4414 22.0496 34.7242 23.5354L34.5876 23.8187L34.3043 23.6801L32.5486 22.817L32.6831 22.5367C33.284 21.286 33.7274 19.7564 34.0078 17.942L34.0088 17.9389C34.1403 17.1336 34.2225 16.3194 34.2554 15.4973V15.4851C34.2882 15.0759 34.3053 14.6755 34.3054 14.2837V12.6675H36.5839V14.2837ZM34.8933 8.49768C34.8933 8.51437 34.8846 8.52315 34.8679 8.52315C34.8012 8.57316 34.7426 8.62294 34.6926 8.67295C34.6091 8.72303 34.5341 8.79025 34.4674 8.87369C34.2504 9.05733 34.1004 9.28324 34.017 9.55032L33.9966 9.6614C33.981 9.77069 33.9791 9.87531 33.9915 9.97526V11.0524H46.0374V21.3455H43.5336V22.9984H47.7157V9.39951H36.6216C36.8553 9.2493 37.1807 9.05737 37.5978 8.82376C38.082 8.57333 38.8169 8.18881 39.802 7.67125C40.1523 7.48773 40.4193 7.35424 40.6029 7.27077C41.5045 6.80743 42.2939 6.37726 42.9701 5.97967L43.608 5.59346L44.36 5.11758L44.5598 4.96676L44.6607 4.91683L44.786 4.79149H44.8105L44.9613 4.69163L45.1111 4.54081C45.136 4.52415 45.1654 4.50164 45.1987 4.47254L45.3118 4.36554L45.4117 4.26568C45.5368 4.12799 45.6479 3.9809 45.7449 3.82444L45.8376 3.66446C45.9001 3.52683 45.9392 3.38448 45.9548 3.23749L45.963 3.08871V1.86181H33.3903V3.53912H43.6834L43.5835 3.61452L43.4327 3.73986L42.7816 4.16581H42.7571C42.0393 4.59984 41.0627 5.14218 39.8274 5.79319L38.8247 6.31901C37.94 6.76973 37.2721 7.12124 36.8213 7.37166C36.1704 7.72214 35.661 8.01434 35.2938 8.24801C35.1604 8.33139 35.0267 8.4143 34.8933 8.49768ZM46.2758 3.08871C46.2758 3.33399 46.2237 3.56988 46.1219 3.79387L46.1179 3.80406L46.1128 3.81323C45.9837 4.05281 45.8269 4.27428 45.643 4.47662L45.6328 4.48681L45.6318 4.48884L45.6308 4.48986L45.6297 4.49088L45.6287 4.4919L45.6277 4.49292L45.6267 4.49394L45.6257 4.49496L45.6246 4.49598L45.6236 4.497L45.6226 4.49801L45.6216 4.49903L45.6206 4.50005L45.6196 4.50107L45.6185 4.50209L45.6175 4.50311L45.6165 4.50413L45.6155 4.50515L45.6145 4.50617L45.6134 4.50719L45.6124 4.50821L45.6114 4.50922L45.6104 4.51024L45.6094 4.51126L45.6083 4.51228L45.6073 4.5133L45.6063 4.51432L45.6053 4.51534L45.6043 4.51636L45.6033 4.51738L45.6022 4.5184L45.6012 4.51941L45.6002 4.52043L45.5992 4.52145L45.5982 4.52247L45.5971 4.52349L45.5961 4.52451L45.5951 4.52553L45.5941 4.52655L45.5931 4.52757L45.592 4.52859L45.591 4.5296L45.59 4.53062L45.589 4.53164L45.588 4.53266L45.5869 4.53368L45.5859 4.5347L45.5849 4.53572L45.5839 4.53674L45.5829 4.53776L45.5819 4.53878L45.5808 4.53979L45.5798 4.54081L45.5788 4.54183L45.5778 4.54285L45.5768 4.54387L45.5757 4.54489L45.5747 4.54591L45.5737 4.54693L45.5727 4.54795L45.5717 4.54897L45.5706 4.54999L45.5696 4.551L45.5686 4.55202L45.5676 4.55304L45.5666 4.55406L45.5655 4.55508L45.5645 4.5561L45.5635 4.55712L45.5625 4.55814L45.5615 4.55916L45.5605 4.56018L45.5594 4.56119L45.5584 4.56221L45.5574 4.56323L45.5564 4.56425L45.5554 4.56527L45.5543 4.56629L45.5533 4.56731L45.5523 4.56833L45.5513 4.56935L45.5503 4.57037L45.5492 4.57138L45.5482 4.5724L45.5472 4.57342L45.5462 4.57444L45.5452 4.57546L45.5441 4.57648L45.5431 4.5775L45.5421 4.57852L45.5411 4.57954L45.5401 4.58056L45.5391 4.58157L45.538 4.58259L45.537 4.58361L45.536 4.58463L45.535 4.58565L45.534 4.58667L45.5329 4.58769C45.4617 4.65891 45.39 4.72016 45.3251 4.76907L45.1824 4.91276L45.1467 4.94842L45.1009 4.97186C45.1002 4.97222 45.0978 4.9735 45.0937 4.97594C45.0885 4.97907 45.0813 4.9832 45.0723 4.98918C45.0536 5.00171 45.0283 5.01939 44.998 5.04217L44.9154 5.10433L44.8818 5.13796L44.8461 5.17465L44.8003 5.19706L44.7249 5.23375L44.5475 5.36724L44.5343 5.37743L44.521 5.38558C44.3592 5.48271 44.1124 5.63876 43.7792 5.85535L43.7741 5.85841C42.963 6.36534 41.9532 6.92888 40.7466 7.54897L40.7395 7.55304L40.7323 7.5561C40.5569 7.63587 40.2957 7.76661 39.9467 7.94944L39.9456 7.94842C38.9807 8.45544 38.2561 8.83565 37.771 9.08667H48.0285V23.3112H43.2208V21.0327H45.7245V11.3652H33.6787V9.98545C33.6616 9.82077 33.6734 9.65237 33.7113 9.48205L33.7143 9.4688L33.7184 9.45657C33.8166 9.14241 33.9919 8.87421 34.2401 8.65664C34.3153 8.56666 34.4013 8.4893 34.498 8.42634C34.5243 8.40119 34.5517 8.37629 34.5805 8.35196V8.32444L34.7272 8.23273C34.8607 8.1493 34.9942 8.06548 35.1277 7.98205C35.5041 7.74261 36.0208 7.44701 36.6736 7.0955C37.1293 6.84245 37.7999 6.49075 38.6831 6.04081C39.1327 5.80769 39.4642 5.63356 39.6787 5.51806L39.6807 5.51602C40.9138 4.86614 41.8847 4.32734 42.5951 3.89781L42.6695 3.85297H33.0774V1.54897H46.2758V3.08871ZM29.7218 6.60739H32.0757V8.9114H29.7208L29.6973 20.3621C30.292 20.2396 30.8816 20.0855 31.4653 19.8954L31.767 19.7976L32.4558 22.0028L32.1552 22.0955C31.0547 22.4341 29.929 22.6885 28.7782 22.8577L28.7772 22.8567C28.2198 22.9411 27.6465 23.0001 27.0571 23.034C26.69 23.0674 26.4055 23.0926 26.2041 23.1094L26.198 23.1104C25.9237 23.1276 25.633 23.1359 25.3268 23.1359H25.0139V20.8574H25.4827C25.7204 20.8425 25.911 20.8347 26.0513 20.8329L26.0961 20.8105L26.1613 20.8075C26.4771 20.7908 26.7141 20.7745 26.8736 20.7585L26.8848 20.7575L27.2833 20.727C27.3279 20.7229 27.3727 20.7172 27.4178 20.7127V8.9114H25.0638V6.60739H27.4433V1.04761H29.7218V6.60739Z" fill="black"/>
  <path d="M4.74049 15.7072L5.04518 15.7816L4.96977 16.0863C4.66651 17.3162 4.29598 18.5293 3.85802 19.7252C3.39953 20.9648 2.81321 22.1459 2.1002 23.2663L1.92901 23.5354L1.66304 23.3601L0 22.2606L0.172215 21.9997C0.74264 21.1359 1.22515 20.1803 1.61821 19.1322L1.61923 19.1291C2.03119 18.058 2.40274 16.8601 2.73404 15.535L2.81046 15.2324L4.74049 15.7072ZM3.0377 15.6104C2.70379 16.9461 2.32805 18.157 1.91067 19.2422L1.75679 19.6386C1.38612 20.5534 0.944331 21.3977 0.433084 22.1719L1.83628 23.0982C2.5374 21.9964 3.11278 20.8359 3.56352 19.6172C3.9976 18.4318 4.36558 17.2297 4.6661 16.0109L3.0377 15.6104ZM3.04382 8.73305C3.3756 10.2924 3.78155 11.8276 4.26257 13.337L4.35632 13.6305L4.06386 13.7283L2.18682 14.354L2.08899 14.0544C1.56789 12.4574 1.13926 10.8429 0.802989 9.21199L0.740829 8.90833L2.9786 8.42633L3.04382 8.73305ZM1.10971 9.14881C1.44362 10.7682 1.869 12.3715 2.38655 13.9576L3.96501 13.4318C3.48084 11.9125 3.07101 10.3677 2.73709 8.79827L1.10971 9.14881ZM3.04382 1.82103C3.3756 3.38039 3.78155 4.91556 4.26257 6.42497L4.35632 6.71947L4.06386 6.81627L2.18682 7.44195L2.08899 7.14236C1.56789 5.54539 1.13926 3.93086 0.802989 2.29997L0.740829 1.9963L2.9786 1.5143L3.04382 1.82103ZM22.9473 3.11417H16.1861V1.13523H14.5078V3.11417H6.97011V11.1278L6.96399 12.5055C6.95982 12.8976 6.95298 13.223 6.94463 13.4817C6.91124 15.051 6.77788 16.6037 6.54416 18.1396C6.31043 19.6756 5.95119 21.1699 5.46705 22.6223L7.02004 23.1736C7.55429 21.6209 7.9378 20.0265 8.17154 18.3903C8.42197 16.7875 8.56409 15.1678 8.59749 13.5316C8.60583 13.3063 8.61267 13.0267 8.61685 12.693L8.62296 11.5282V4.79148H14.5078V9.55031H10.7262V11.2276H20.2429V12.5799C20.2262 13.2309 20.1181 13.8657 19.9178 14.4834C19.6841 15.1011 19.3745 15.6686 18.9905 16.1862C18.7901 16.4533 18.5731 16.7045 18.3393 16.9382L18.1895 17.088L17.9888 17.3132L17.5883 17.6638C17.2878 17.9142 16.9705 18.1654 16.6365 18.4158L16.3033 18.161C15.5382 17.5566 14.8561 16.8813 14.2571 16.1362L13.982 15.7857L13.7568 15.4352L13.6315 15.2599L13.5316 15.0846L13.3064 14.7341C13.0226 14.2332 12.7714 13.7153 12.5543 13.1811L11.0268 13.8322C11.2773 14.4166 11.5527 14.9928 11.8533 15.5605L12.1039 15.961L12.2293 16.1862L12.3791 16.3869L12.6552 16.7874L12.9548 17.1634C13.5893 17.9815 14.3164 18.7154 15.1345 19.3665C14.7672 19.5836 14.4158 19.7764 14.0819 19.9433C13.8983 20.0434 13.6145 20.1848 13.231 20.3682C13.1809 20.3849 13.139 20.4025 13.1056 20.4192L12.1284 20.8441C12.1119 20.8443 12.095 20.8531 12.0785 20.8696C11.8783 20.953 11.7282 21.0115 11.6281 21.0449L10.125 21.6461L10.7018 23.1991L11.7279 22.7976L12.2537 22.5979C12.2871 22.5895 12.3271 22.5768 12.373 22.5602L12.5299 22.497C12.6461 22.4471 12.7295 22.406 12.7796 22.3727L13.8067 21.9212L14.4834 21.5962C14.5584 21.5545 14.6247 21.5184 14.6831 21.4892L14.8339 21.4209C15.5183 21.0703 16.1025 20.7364 16.5866 20.4192C17.9453 21.3103 19.5854 22.1306 21.5065 22.8812L22.3461 23.1991L22.9229 21.6461C21.2368 21.0451 19.6256 20.2935 18.0897 19.392C18.3399 19.1919 18.5397 19.0329 18.6899 18.9161L19.1158 18.5157C19.1825 18.4656 19.2743 18.3738 19.391 18.2405L19.5418 18.0897C19.8256 17.8059 20.0846 17.5051 20.3183 17.1879C20.7565 16.6035 21.1055 15.981 21.3648 15.32L21.4698 15.0347C21.7369 14.25 21.879 13.4401 21.8957 12.6053V9.55031H16.1861V4.79148H21.27V6.87028H22.9473V3.11417ZM1.10971 2.23679C1.44362 3.85621 1.86901 5.45952 2.38655 7.04555L3.96501 6.51974C3.48084 5.00043 3.07101 3.45564 2.73709 1.88625L1.10971 2.23679ZM16.499 2.80031H23.2602V7.18312H20.9562V5.10432H16.499V9.23645H22.2086V12.6115C22.1912 13.4782 22.0439 14.3201 21.7663 15.1356L21.7653 15.1376C21.4873 15.9368 21.0886 16.6836 20.569 17.3764L20.5679 17.3754C20.3251 17.7047 20.057 18.0167 19.7629 18.3108C19.7295 18.3442 19.6799 18.3949 19.6131 18.4617C19.5109 18.5776 19.4141 18.6737 19.3298 18.7419L19.3308 18.7439L18.9049 19.1444L18.8937 19.1546L18.8825 19.1638C18.8143 19.2168 18.7355 19.2785 18.6461 19.3492C20.0449 20.1398 21.5049 20.8077 23.0279 21.3506L23.3264 21.4576L23.2164 21.7551L22.6396 23.3071L22.5316 23.5996L22.2391 23.4926C20.0175 22.6817 18.1325 21.7796 16.5856 20.7881C16.1258 21.0794 15.5902 21.3848 14.9766 21.6991L14.9633 21.7062L14.9501 21.7113C14.8854 21.7372 14.7821 21.7876 14.6352 21.8693L14.623 21.8764C14.3217 22.027 14.0912 22.1378 13.9341 22.2076L12.912 22.6549C12.8411 22.697 12.7528 22.7427 12.6532 22.7854C12.5472 22.8308 12.4494 22.8664 12.3658 22.8903L11.841 23.089L10.8149 23.4905L10.5183 23.6057L10.4083 23.3071L9.83152 21.7551L9.72554 21.4688L10.0088 21.3557L11.0105 20.9542L11.5119 20.7545L11.52 20.7504L11.5292 20.7483C11.6143 20.72 11.7468 20.6665 11.9327 20.5894C11.9629 20.5705 11.9978 20.5519 12.0387 20.5415L12.9803 20.1318C13.0164 20.1146 13.0552 20.1004 13.0954 20.086C13.4783 19.9029 13.756 19.7642 13.9321 19.6682L13.9423 19.6631L14.4457 19.3992C14.4919 19.3738 14.5373 19.3459 14.5842 19.3197C13.8914 18.7289 13.2671 18.0752 12.7113 17.3591L12.4107 16.9831L12.3964 16.9647L12.1284 16.5744L11.9786 16.3747L11.9654 16.3574L11.9552 16.338L11.838 16.1271L11.5883 15.7266L11.5822 15.7164L11.5771 15.7072C11.2726 15.1321 10.9933 14.5478 10.7395 13.9555L10.6151 13.6672L10.9046 13.5449L12.4321 12.8937L12.7245 12.7684L12.8448 13.0639C13.0567 13.5854 13.3015 14.0903 13.5785 14.5792L13.7945 14.9155L13.8913 15.0846L14.0115 15.2528L14.0156 15.2599L14.0197 15.266L14.2317 15.5962L14.5017 15.9406L14.7565 16.2473C15.3137 16.8961 15.9406 17.4863 16.6355 18.0204C16.8968 17.8206 17.1483 17.6227 17.3876 17.4233L17.7707 17.088C17.8107 17.0477 17.8699 16.9823 17.949 16.8873L17.9582 16.8771L17.9684 16.8669C18.0351 16.8001 18.0848 16.7494 18.1182 16.7161C18.3413 16.4929 18.5493 16.254 18.7408 15.9987C19.1051 15.5073 19.397 14.9674 19.6202 14.3795C19.8098 13.7926 19.9142 13.1904 19.93 12.5717V11.5405H10.4134V9.23645H14.195V5.10432H8.9358V11.5282C8.9358 12.414 8.92724 13.0871 8.91033 13.5439C8.87648 15.1902 8.73313 16.8199 8.48132 18.4331L8.48234 18.4341C8.24582 20.0898 7.8563 21.704 7.31556 23.2755L7.21365 23.5741L6.91508 23.4691L5.07371 22.8149L5.17052 22.5235C5.64893 21.0882 6.00329 19.6113 6.23438 18.0928C6.46603 16.5704 6.59867 15.0314 6.63179 13.4756V13.4715C6.64831 12.9592 6.65727 12.1787 6.65727 11.1278V2.80031H14.195V0.822388H16.499V2.80031Z" fill="black"/>
</svg>