<svg width="14" height="14" viewBox="0 0 14 14" fill="none" xmlns="http://www.w3.org/2000/svg">
<path fill-rule="evenodd" clip-rule="evenodd" d="M5.63448 0.134481C6.99235 -0.135615 8.40032 0.00310511 9.6794 0.532919C10.9584 1.06271 12.0518 1.95998 12.821 3.11104C13.5902 4.26219 14.0007 5.61622 14.0007 7.00069C14.0006 8.85711 13.2626 10.6372 11.9499 11.9499C10.6372 13.2626 8.85711 14.0006 7.00069 14.0007C5.61622 14.0007 4.26219 13.5902 3.11104 12.821C1.95998 12.0518 1.06271 10.9584 0.532919 9.6794C0.00310511 8.40032 -0.135615 6.99235 0.134481 5.63448C0.404605 4.2767 1.07158 3.02941 2.0505 2.0505C3.02941 1.07158 4.2767 0.404605 5.63448 0.134481ZM7.00069 0.875692C5.78928 0.875692 4.60462 1.23489 3.59737 1.90792C2.59024 2.58093 1.80506 3.53783 1.34151 4.65694C0.878123 5.77591 0.756671 7.00716 0.992879 8.19503C1.22921 9.38316 1.81304 10.4752 2.66964 11.3317C3.52616 12.1882 4.61743 12.7712 5.80538 13.0075C6.99351 13.2439 8.22524 13.1225 9.34444 12.6589C10.4636 12.1953 11.4205 11.4102 12.0935 10.403C12.7663 9.39593 13.1256 8.21189 13.1257 7.00069C13.1257 5.37637 12.4802 3.81827 11.3317 2.66964C10.1832 1.52104 8.62505 0.875763 7.00069 0.875692ZM6.93526 9.33663C7.03343 9.33156 7.132 9.3468 7.22432 9.38058C7.31662 9.41441 7.40167 9.46663 7.47335 9.5339C7.54569 9.60077 7.60237 9.68282 7.63936 9.77413C7.67643 9.86565 7.69274 9.9646 7.68722 10.0632C7.68933 10.1612 7.67123 10.2585 7.63448 10.3493C7.59764 10.4403 7.54315 10.5235 7.47335 10.5925C7.32458 10.7264 7.13056 10.7993 6.93038 10.7976C6.73588 10.7953 6.54984 10.7178 6.41182 10.5808C6.27384 10.4436 6.19459 10.2577 6.19112 10.0632C6.18676 9.96523 6.20426 9.86719 6.24288 9.77706C6.28144 9.68708 6.34001 9.60703 6.41378 9.54268C6.48103 9.47362 6.56242 9.41895 6.65206 9.3835C6.7418 9.34806 6.83888 9.33216 6.93526 9.33663ZM7.09249 3.37765C7.67772 3.34102 8.25503 3.52914 8.70675 3.90304C8.9077 4.08696 9.06632 4.31251 9.17061 4.56417C9.27493 4.81588 9.32224 5.08786 9.31026 5.36007C9.32581 5.80434 9.19372 6.24126 8.93429 6.60225C8.65878 6.88473 8.36641 7.15041 8.05929 7.39815C7.88144 7.54205 7.73291 7.71966 7.62179 7.91964C7.51059 8.12938 7.45453 8.36394 7.45968 8.60128V8.77706H6.39229V8.60128C6.3807 8.26855 6.44648 7.93737 6.58468 7.63448C6.90492 7.15553 7.29792 6.72957 7.74874 6.37081L7.92354 6.17745C8.09667 5.96789 8.19375 5.70606 8.19893 5.43429C8.21302 5.12757 8.10677 4.82717 7.90206 4.59835C7.78512 4.48985 7.64637 4.4069 7.49581 4.35421C7.34544 4.30161 7.18592 4.28086 7.02706 4.29268C6.83692 4.27601 6.64536 4.30718 6.47042 4.3835C6.29539 4.45994 6.14219 4.57929 6.02511 4.73018C5.8226 5.04134 5.72513 5.40949 5.74874 5.77999H4.69015C4.67341 5.45937 4.72267 5.13848 4.83468 4.83761C4.9468 4.53661 5.11998 4.26163 5.34249 4.02999C5.57467 3.80838 5.84934 3.63619 6.15011 3.52413C6.45095 3.41206 6.77183 3.36194 7.09249 3.37765Z" fill="white"/>
</svg>
