<svg width="15" height="14" viewBox="0 0 15 14" fill="none" xmlns="http://www.w3.org/2000/svg">
<path opacity="0.5" d="M12.1125 0L14.5875 3.05354C14.6553 3.13726 14.697 3.23853 14.7075 3.34509L14.7101 3.39897V10.1833C14.7101 11.1686 13.9061 11.9702 12.9101 11.9702C11.9415 11.9702 11.154 11.2114 11.112 10.2626L11.1101 10.1833V4.57772H9.9375V12.8925L15 12.8928V14H0V12.8928H1.3125V0.714116C1.31251 0.576503 1.36459 0.443826 1.45861 0.341957C1.55262 0.240088 1.68181 0.176332 1.821 0.163121L1.875 0.160538H9.375C9.51483 0.160544 9.64965 0.211806 9.75316 0.304328C9.85667 0.396849 9.92145 0.523995 9.93488 0.660973L9.9375 0.714116V3.47057H11.6726C11.8125 3.47057 11.9473 3.52184 12.0508 3.61436C12.1543 3.70688 12.2191 3.83403 12.2325 3.971L12.2351 4.02415V10.1833C12.2351 10.5601 12.5389 10.8631 12.9101 10.8631C13.2626 10.8631 13.5547 10.59 13.5829 10.2394L13.5851 10.1833V3.59236L11.2331 0.690128L12.1125 0ZM7.125 3.66653H4.125C4.02554 3.66653 3.93016 3.70542 3.85984 3.77463C3.78951 3.84384 3.75 3.93771 3.75 4.03559V6.98801C3.75 7.08588 3.78951 7.17975 3.85984 7.24897C3.93016 7.31818 4.02554 7.35706 4.125 7.35706H7.125C7.22446 7.35706 7.31984 7.31818 7.39016 7.24897C7.46049 7.17975 7.5 7.08588 7.5 6.98801V4.03559C7.5 3.93771 7.46049 3.84384 7.39016 3.77463C7.31984 3.70542 7.22446 3.66653 7.125 3.66653Z" fill="#9FA7BA"/>
</svg>
