<svg
  xmlns="http://www.w3.org/2000/svg"
  width="26"
  height="19"
  viewBox="0 0 26 19"
  fill="none"
>
  <path
    d="M25.4107 9.21541C25.4338 11.2672 24.9972 13.2278 24.1396 15.101C22.9149 17.7684 19.9788 19.9494 17.2976 17.6278C15.111 15.7356 14.7053 11.8941 11.4292 11.3318C7.09455 10.8151 6.99024 15.7584 4.15841 16.3169C1.00207 16.9477 -0.0448953 11.7269 0.00146481 9.35598C0.0478248 6.98499 0.689139 3.65269 3.43211 3.65269C6.58845 3.65269 6.80093 8.35286 10.8072 8.09828C14.7749 7.83231 14.8444 2.94215 17.4367 0.848546C19.6736 -0.96009 22.3045 0.365989 23.6219 2.54319C24.8427 4.55701 25.3797 6.92039 25.4067 9.21541H25.4107Z"
    fill="currentColor"
  />
</svg>