<svg width="55" height="15" viewBox="0 0 55 15" fill="none" xmlns="http://www.w3.org/2000/svg">
<path d="M8.50395 0.0829618L2.56196 1.67511C1.57622 1.93924 1.03518 2.84344 0.887878 3.26252C0.887878 3.26252 -0.217929 5.95685 0.0386126 7.07653L1.58459 12.8462C1.92028 14.099 3.20803 14.8425 4.46084 14.5068L11.0263 12.6145C12.2791 12.2788 12.6538 11.0379 13.0941 8.83623C13.1373 8.67511 13.1907 8.22932 13.0583 7.73515L11.4661 1.79316C11.1204 0.502927 9.79419 -0.262755 8.50395 0.0829618Z" fill="black"/>
<path fill-rule="evenodd" clip-rule="evenodd" d="M8.66056 0.666881L2.71856 2.25903C1.75089 2.51832 1.17662 3.51297 1.43591 4.48065L3.02806 10.4226C3.28735 11.3903 4.282 11.9646 5.24968 11.7053L11.1917 10.1131C12.1593 9.85385 12.7336 8.8592 12.4743 7.89152L10.8822 1.94953C10.6229 0.981855 9.62823 0.407593 8.66056 0.666881Z" fill="#EBF479"/>
<path d="M6.43006 3.32816C7.8469 2.94852 9.30364 3.78957 9.68328 5.20641C10.0627 6.62316 9.22152 8.07908 7.80478 8.4587L6.55917 8.79246C6.11192 8.91229 5.65221 8.64688 5.53237 8.19963C5.41253 7.75239 5.67795 7.29267 6.12519 7.17283L7.22554 6.878C7.75486 6.73616 8.06895 6.19214 7.92712 5.66282C7.78529 5.1335 7.24126 4.81941 6.71194 4.96124L5.59886 5.25948C5.15865 5.37744 4.70616 5.1162 4.58821 4.67598C4.47026 4.23577 4.7315 3.78328 5.17171 3.66533L6.43006 3.32816Z" fill="black"/>
<path d="M17.3226 3.64697H19.9964C20.6402 3.64697 21.2096 3.77515 21.7044 4.03149C22.2051 4.28784 22.5926 4.64553 22.8669 5.10457C23.1471 5.56361 23.2872 6.08823 23.2872 6.67842C23.2872 7.29842 23.15 7.8439 22.8758 8.31486C22.6075 8.78582 22.223 9.15246 21.7223 9.41477C21.2274 9.67111 20.6522 9.79929 19.9964 9.79929H17.3226V3.64697ZM19.907 8.18967C20.3541 8.18967 20.6939 8.04957 20.9264 7.76938C21.1648 7.48323 21.2841 7.11361 21.2841 6.66053C21.2841 6.2313 21.1678 5.89149 20.9353 5.64111C20.7088 5.38476 20.366 5.25659 19.907 5.25659H19.2989V8.18967H19.907Z" fill="black"/>
<path d="M25.9937 9.87082C25.6062 9.87082 25.2426 9.76948 24.9028 9.56679C24.5689 9.35813 24.3007 9.07794 24.098 8.72621C23.8953 8.36852 23.7939 7.97207 23.7939 7.53688C23.7939 7.10765 23.8953 6.72015 24.098 6.37438C24.3007 6.02265 24.5719 5.74842 24.9117 5.55169C25.2515 5.35496 25.6122 5.25659 25.9937 5.25659C26.3037 5.25659 26.5899 5.34303 26.8522 5.51592C27.1205 5.6888 27.3232 5.94813 27.4603 6.2939V5.25659H29.3382V9.79929H27.4603V8.96765C27.1622 9.56977 26.6734 9.87082 25.9937 9.87082ZM26.575 8.45794C26.8135 8.45794 27.0162 8.37448 27.1831 8.20755C27.356 8.03467 27.4484 7.83198 27.4603 7.59948V7.52794C27.4484 7.28948 27.353 7.08678 27.1741 6.91986C27.0012 6.75294 26.8015 6.66948 26.575 6.66948C26.3246 6.66948 26.11 6.7589 25.9311 6.93775C25.7583 7.11063 25.6718 7.31928 25.6718 7.56371C25.6718 7.81409 25.7612 8.02573 25.9401 8.19861C26.1189 8.3715 26.3306 8.45794 26.575 8.45794Z" fill="black"/>
<path d="M30.2439 5.38178H32.1308V6.15976C32.4169 5.55765 32.9028 5.25659 33.5884 5.25659C33.9878 5.25659 34.3544 5.35794 34.6883 5.56063C35.0281 5.75736 35.2934 6.03159 35.4841 6.38332C35.6809 6.73505 35.7792 7.12851 35.7792 7.56371C35.7792 7.9989 35.6779 8.39236 35.4752 8.74409C35.2785 9.09582 35.0102 9.37304 34.6704 9.57573C34.3365 9.77246 33.9788 9.87082 33.5973 9.87082C32.9177 9.87082 32.4288 9.56977 32.1308 8.96765V10.9618L30.2439 11.3195V5.38178ZM33.025 8.45794C33.2694 8.45794 33.4781 8.36852 33.651 8.18967C33.8238 8.01082 33.9103 7.80217 33.9103 7.56371C33.9103 7.31332 33.8209 7.10169 33.642 6.9288C33.4691 6.75592 33.2635 6.66948 33.025 6.66948C32.7806 6.66948 32.5719 6.75592 32.399 6.9288C32.2261 7.09573 32.1397 7.29544 32.1397 7.52794V7.56371C32.1397 7.81409 32.2261 8.02573 32.399 8.19861C32.5779 8.3715 32.7865 8.45794 33.025 8.45794Z" fill="black"/>
<path d="M36.5434 3.64697H39.2171C39.861 3.64697 40.4303 3.77515 40.9251 4.03149C41.4259 4.28784 41.8134 4.64553 42.0876 5.10457C42.3678 5.56361 42.5079 6.08823 42.5079 6.67842C42.5079 7.29842 42.3708 7.8439 42.0966 8.31486C41.8283 8.78582 41.4438 9.15246 40.943 9.41477C40.4482 9.67111 39.8729 9.79929 39.2171 9.79929H36.5434V3.64697ZM39.1277 8.18967C39.5748 8.18967 39.9146 8.04957 40.1471 7.76938C40.3856 7.48323 40.5048 7.11361 40.5048 6.66053C40.5048 6.2313 40.3886 5.89149 40.1561 5.64111C39.9295 5.38476 39.5867 5.25659 39.1277 5.25659H38.5196V8.18967H39.1277Z" fill="black"/>
<path d="M45.2145 9.87082C44.827 9.87082 44.4633 9.76948 44.1235 9.56679C43.7897 9.35813 43.5214 9.07794 43.3187 8.72621C43.116 8.36852 43.0147 7.97207 43.0147 7.53688C43.0147 7.10765 43.116 6.72015 43.3187 6.37438C43.5214 6.02265 43.7927 5.74842 44.1325 5.55169C44.4723 5.35496 44.8329 5.25659 45.2145 5.25659C45.5245 5.25659 45.8106 5.34303 46.0729 5.51592C46.3412 5.6888 46.5439 5.94813 46.681 6.2939V5.25659H48.5589V9.79929H46.681V8.96765C46.383 9.56977 45.8941 9.87082 45.2145 9.87082ZM45.7957 8.45794C46.0342 8.45794 46.2369 8.37448 46.4038 8.20755C46.5767 8.03467 46.6691 7.83198 46.681 7.59948V7.52794C46.6691 7.28948 46.5737 7.08678 46.3949 6.91986C46.222 6.75294 46.0223 6.66948 45.7957 6.66948C45.5454 6.66948 45.3307 6.7589 45.1519 6.93775C44.979 7.11063 44.8926 7.31928 44.8926 7.56371C44.8926 7.81409 44.982 8.02573 45.1608 8.19861C45.3397 8.3715 45.5513 8.45794 45.7957 8.45794Z" fill="black"/>
<path d="M49.4647 5.38178H51.3515V6.15976C51.6377 5.55765 52.1235 5.25659 52.8091 5.25659C53.2085 5.25659 53.5752 5.35794 53.909 5.56063C54.2488 5.75736 54.5141 6.03159 54.7049 6.38332C54.9016 6.73505 55 7.12851 55 7.56371C55 7.9989 54.8986 8.39236 54.6959 8.74409C54.4992 9.09582 54.2309 9.37304 53.8911 9.57573C53.5573 9.77246 53.1996 9.87082 52.818 9.87082C52.1384 9.87082 51.6496 9.56977 51.3515 8.96765V10.9618L49.4647 11.3195V5.38178ZM52.2457 8.45794C52.4902 8.45794 52.6988 8.36852 52.8717 8.18967C53.0446 8.01082 53.131 7.80217 53.131 7.56371C53.131 7.31332 53.0416 7.10169 52.8628 6.9288C52.6899 6.75592 52.4842 6.66948 52.2457 6.66948C52.0013 6.66948 51.7927 6.75592 51.6198 6.9288C51.4469 7.09573 51.3604 7.29544 51.3604 7.52794V7.56371C51.3604 7.81409 51.4469 8.02573 51.6198 8.19861C51.7986 8.3715 52.0073 8.45794 52.2457 8.45794Z" fill="black"/>
</svg>
