<svg width="15" height="13" viewBox="0 0 15 13" fill="none" xmlns="http://www.w3.org/2000/svg">
<path d="M6.29956 6.78261C7.02643 7.20129 7.37886 7.38969 7.79736 7.38969C8.21586 7.38969 8.59031 7.18035 9.29515 6.78261L13.8767 4.27053C14.0969 4.12399 14.2291 3.93559 14.2291 3.72625C14.2291 3.51691 14.0749 3.24477 13.8767 3.11916L9.22908 0.607085C8.5022 0.188406 8.14978 0 7.73128 0C7.31278 0 6.93833 0.20934 6.23348 0.607085L2.29075 2.76328C2.29075 2.76328 2.22467 2.76328 2.22467 2.82609C0.859031 3.57971 0 5.02415 0 6.51047V6.65701C0 8.16425 0.859031 9.52496 2.22467 10.3414L2.29075 10.4042L4.80176 11.7649C6.23348 12.5813 7.02643 13 7.81938 13C8.61234 13 9.31718 12.5813 10.837 11.7649L13.4802 10.3414C14.207 9.92271 14.5595 9.7343 14.7797 9.37842C15 9.04348 15 8.6248 15 7.80837V6.23833C15 6.02899 14.8458 5.81965 14.6476 5.69404C14.4273 5.5475 14.207 5.5475 14.0088 5.69404L8.52423 8.6876C8.17181 8.89694 7.95154 8.95974 7.79736 8.95974C7.57709 8.95974 7.44493 8.89694 7.07049 8.6876L3.4141 6.63607C3.12775 6.48953 3.06167 6.48953 2.97357 6.42673C2.81938 6.42673 2.62115 6.48953 2.53304 6.63607V7.24316C2.53304 7.38969 2.68722 7.5153 2.7533 7.66184C2.81938 7.80837 2.90749 7.80837 3.03965 7.93398L6.98238 10.1111C7.3348 10.3205 7.55507 10.3833 7.70925 10.3833C7.92952 10.3833 8.06167 10.3205 8.43612 10.1111L13.2379 7.47343C13.3921 7.41063 13.4581 7.32689 13.4581 7.41063C13.5242 7.41063 13.5242 7.47343 13.5242 7.61997V8.31079C13.5242 8.52013 13.5242 8.58293 13.4581 8.72947C13.3921 8.79227 13.304 8.87601 13.1057 8.93881L9.163 11.0741C8.43612 11.4928 8.0837 11.6812 7.6652 11.6812C7.2467 11.6812 6.87225 11.4718 6.1674 11.0741L2.44493 9.02254C1.71806 8.60386 1.29956 7.78744 1.29956 6.90821V6.21739C1.29956 5.73591 1.5859 5.33816 2.02643 5.06602C2.37885 4.85668 2.88546 4.85668 3.23789 5.06602L6.29956 6.78261Z" fill="black"/>
</svg>
