<svg xmlns="http://www.w3.org/2000/svg" width="88" height="13" viewBox="0 0 88 13" fill="none">
  <g clip-path="url(#clip0_881_812)">
    <path d="M15.5308 5.42798C15.5308 10.3315 12.3914 11.9052 10.7265 10.5139C9.37081 9.37359 8.96649 6.95605 6.92108 6.70517C4.32865 6.40868 4.09081 9.7157 2.37838 9.7157C0.380541 9.7157 0 6.95605 0 5.51921C0 4.05956 0.428108 2.07534 2.11676 2.07534C4.09081 2.07534 4.20973 4.92622 6.68324 4.76657C9.13297 4.60693 9.18054 1.64201 10.7978 0.38762C12.2011 -0.729923 15.5308 0.456042 15.5308 5.42798Z" fill="#072723"/>
    <path d="M22.9037 9.98942V0.478882H23.8551V4.60696H29.6584V0.478882H30.586V10.0122H29.6584V5.38238H23.8551V10.0122H22.9037V9.98942Z" fill="#072723"/>
    <path d="M33.0595 12.8859L34.3438 9.82977L31.5611 3.421H32.5362L34.3676 7.75433C34.4627 8.02802 34.6292 8.37012 34.8195 8.80346C34.8433 8.73504 34.867 8.66661 34.9146 8.59819C34.9384 8.52977 34.9622 8.46135 35.0097 8.39293C35.0573 8.27889 35.1287 8.16486 35.1524 8.05082C35.1762 7.93679 35.2238 7.84556 35.2714 7.73153L36.9838 3.39819H37.9114L34.0108 12.8631H33.0595V12.8859Z" fill="#072723"/>
    <path d="M38.8151 12.8859V3.42098H39.6951V3.83151C39.6951 3.92274 39.6951 3.99116 39.6951 4.08238C39.6951 4.17361 39.6951 4.26484 39.6951 4.35607C39.6951 4.40168 39.6951 4.4473 39.6951 4.49291C39.6951 4.53853 39.6951 4.58414 39.6951 4.62975C39.933 4.21923 40.2422 3.87712 40.694 3.62624C41.1222 3.37537 41.5978 3.23853 42.1449 3.23853C42.787 3.23853 43.334 3.39817 43.8097 3.69467C44.2854 3.99116 44.6422 4.40168 44.9038 4.92624C45.1654 5.45081 45.2843 6.04379 45.2843 6.70519C45.2843 7.3894 45.1654 7.98239 44.9038 8.50695C44.6422 9.03151 44.2616 9.44203 43.8097 9.76133C43.334 10.0578 42.787 10.2175 42.1924 10.2175C41.6692 10.2175 41.2173 10.1034 40.7654 9.85256C40.3373 9.62449 40.0043 9.25958 39.7427 8.80344C39.7427 8.87186 39.7427 8.94028 39.7427 9.03151C39.7427 9.09993 39.7427 9.16835 39.7427 9.23677C39.7427 9.28239 39.7427 9.35081 39.7427 9.39642C39.7427 9.44203 39.7427 9.48765 39.7427 9.53326V12.9087H38.8151V12.8859ZM42.0022 9.51046C42.4778 9.51046 42.8822 9.39642 43.2389 9.14554C43.5957 8.89467 43.8573 8.57537 44.0713 8.14203C44.2616 7.7087 44.3567 7.22975 44.3567 6.68239C44.3567 6.13502 44.2616 5.65607 44.0713 5.24554C43.8811 4.83502 43.5957 4.49291 43.2389 4.26484C42.8822 4.03677 42.4778 3.92274 42.0022 3.92274C41.5503 3.92274 41.1459 4.03677 40.7892 4.26484C40.4324 4.49291 40.147 4.81221 39.9567 5.24554C39.7665 5.65607 39.6476 6.15782 39.6476 6.70519C39.6476 7.25256 39.7427 7.75431 39.9567 8.16484C40.147 8.59817 40.4324 8.91747 40.7892 9.16835C41.1459 9.41923 41.5503 9.51046 42.0022 9.51046Z" fill="#072723"/>
    <path d="M49.494 10.1947C48.8519 10.1947 48.2811 10.0578 47.7816 9.78414C47.2821 9.51046 46.9016 9.09991 46.64 8.57535C46.3784 8.05079 46.2357 7.41221 46.2357 6.68239C46.2357 6.02098 46.3784 5.428 46.6638 4.90342C46.9492 4.37886 47.3297 3.96833 47.8054 3.67184C48.2811 3.37535 48.8281 3.2157 49.4227 3.2157C50.0648 3.2157 50.6119 3.35254 51.0876 3.64903C51.5394 3.92272 51.8962 4.33326 52.134 4.83502C52.3719 5.35958 52.4908 5.95254 52.4908 6.63675V6.81923H47.1157C47.1157 7.3894 47.2108 7.86835 47.4248 8.27888C47.6389 8.6894 47.9005 8.9859 48.2573 9.19116C48.614 9.39642 49.0421 9.51046 49.494 9.51046C50.0411 9.51046 50.493 9.3964 50.8735 9.14552C51.2303 8.89465 51.4681 8.50693 51.5394 8.00517H52.4194C52.3481 8.4157 52.2054 8.80344 51.9438 9.12272C51.7059 9.44201 51.373 9.71572 50.9448 9.89818C50.5643 10.0806 50.0648 10.1947 49.494 10.1947ZM51.5394 6.18061C51.5394 5.4964 51.3492 4.94905 50.9686 4.53853C50.5881 4.128 50.0886 3.92274 49.4227 3.92274C48.7805 3.92274 48.2573 4.12798 47.853 4.56131C47.4486 4.99465 47.2108 5.51921 47.1394 6.18061H51.5394Z" fill="#072723"/>
    <path d="M53.8465 9.9894V3.42098H54.7265V3.85431C54.7265 3.92274 54.7265 3.99116 54.7265 4.05958C54.7265 4.128 54.7265 4.19642 54.7265 4.26484C54.7265 4.33326 54.7265 4.42449 54.7265 4.49291C54.7265 4.56133 54.7265 4.65256 54.7265 4.74379C54.9168 4.31046 55.2022 3.94554 55.6303 3.67186C56.0346 3.39817 56.5103 3.23853 57.0573 3.23853C57.2 3.23853 57.3189 3.23853 57.4378 3.26133V4.08238C57.2714 4.05958 57.1287 4.05958 57.0097 4.05958C56.5578 4.05958 56.1535 4.15081 55.8206 4.35607C55.4876 4.56133 55.226 4.83502 55.0357 5.19993C54.8454 5.56484 54.7503 5.99817 54.7503 6.47712V10.0122H53.8465V9.9894Z" fill="#072723"/>
    <path d="M59.6259 9.80694L59.5784 9.98939H56.7957L56.8432 9.80694C57.6043 9.73852 57.9373 9.51045 58.0562 8.96308L59.6259 1.87009C59.7924 1.14027 59.5546 1.02623 58.7459 1.18588L58.7935 1.00342L60.5059 0.456055H60.6962L58.8173 8.98589C58.6746 9.51045 58.8886 9.73852 59.6259 9.80694Z" fill="#072723"/>
    <path d="M62.7892 9.80688L62.7416 9.98936H59.9351L59.9827 9.80688C60.7438 9.73848 61.0767 9.51041 61.1957 8.96304L62.147 4.62971C62.3135 3.89988 62.0994 3.78585 61.267 3.9455L61.3146 3.76302L63.027 3.21565H63.2173L61.9567 8.96304C61.8378 9.51041 62.0519 9.73848 62.7892 9.80688ZM63.2648 0.820923C63.6454 0.820923 63.8832 1.09461 63.8357 1.45952C63.7881 1.82443 63.4551 2.07531 63.0984 2.07531C62.7178 2.07531 62.4562 1.80162 62.5038 1.45952C62.5275 1.09461 62.8605 0.820923 63.2648 0.820923Z" fill="#072723"/>
    <path d="M67.5935 11.9052L68.3546 8.50695C67.8789 9.51046 66.8562 10.1947 65.8097 10.1947C64.0973 10.1947 63.2886 8.64379 63.8119 6.34028C64.1686 4.65256 65.7384 3.2157 67.5935 3.2157C68.4497 3.2157 69.1632 3.58061 69.4486 4.12798L70.0908 3.2157H70.2811L68.3308 11.9052C68.1881 12.4982 68.6876 12.6122 69.187 12.7034L69.1394 12.8859H65.9286L65.9762 12.7034C66.9276 12.6122 67.4746 12.4982 67.5935 11.9052ZM66.2854 9.7157C67.1654 9.7157 68.0454 8.98587 68.4735 8.11921L69.0443 5.51923C69.187 4.58414 68.7351 3.60344 67.3794 3.60344C66.0951 3.60344 65.0011 4.72098 64.6443 6.34028C64.2162 8.32449 64.8346 9.7157 66.2854 9.7157Z" fill="#072723"/>
    <path d="M79.866 9.80688L79.8184 9.98936H77.0119L77.0595 9.80688C77.8206 9.73848 78.1535 9.51041 78.2724 8.96304L79.2238 4.62971C79.3903 3.89988 79.1762 3.78585 78.3438 3.9455L78.3914 3.76302L80.1038 3.21565H80.2941L79.0335 8.96304C78.9146 9.51041 79.1287 9.73848 79.866 9.80688ZM80.3416 0.820923C80.7222 0.820923 80.96 1.09461 80.9124 1.45952C80.8649 1.82443 80.5319 2.07531 80.1751 2.07531C79.7946 2.07531 79.533 1.80162 79.5806 1.45952C79.6281 1.09461 79.9611 0.820923 80.3416 0.820923Z" fill="#072723"/>
    <path d="M75.8941 8.94028L76.5363 6.04377L77.1546 3.2157H76.9644L75.2519 3.76307L75.2044 3.94555C76.013 3.7859 76.2271 3.89993 76.0844 4.62976L75.2757 8.32447C74.3719 9.12272 73.7535 9.60166 72.9687 9.60166C72.0173 9.60166 71.5179 8.9859 71.7557 7.91397L72.8022 3.2157H72.6119L70.8995 3.76307L70.8519 3.94555C71.6606 3.7859 71.8984 3.89993 71.7319 4.62976L70.9946 8.00517C70.7092 9.25956 71.3752 10.1718 72.5881 10.1718C73.3968 10.1718 74.1103 9.73853 75.2281 8.59818L75.1806 8.82625L74.9427 9.94377H76.7265L76.7741 9.73853C75.9892 9.71572 75.7752 9.51046 75.8941 8.94028Z" fill="#072723"/>
    <path d="M87.3341 2.96481L87.8811 0.433228H87.6908L85.9784 0.980596L85.9308 1.16305C86.7395 1.0034 86.9535 1.11744 86.8108 1.84726L86.3352 4.01394C86.026 3.53499 85.36 3.21569 84.599 3.21569C82.72 3.21569 81.1741 4.65253 80.7698 6.45429C80.2941 8.64376 81.079 10.1946 82.7914 10.1946C83.8617 10.1946 84.8844 9.48762 85.36 8.48411L85.2411 9.05429L85.0271 9.98938L86.8108 9.96657L86.8584 9.78411C86.1211 9.71569 85.9071 9.48762 86.026 8.94025L87.3341 2.96481ZM85.4314 8.09639C85.0271 8.98587 84.1233 9.71569 83.2433 9.71569C81.7925 9.71569 81.1741 8.32446 81.5784 6.45429C81.959 4.69815 83.0768 3.60341 84.3611 3.60341C85.7406 3.60341 86.1925 4.65253 86.0022 5.58762L85.9308 5.88411L85.4314 8.09639Z" fill="#072723"/>
  </g>
  <defs>
    <clipPath id="clip0_881_812">
      <rect width="88" height="13" fill="white"/>
    </clipPath>
  </defs>
</svg>