<svg width="39" height="41" viewBox="0 0 39 41" fill="none" xmlns="http://www.w3.org/2000/svg">
<path d="M28.9981 10.0821C23.5308 4.61477 14.6665 4.61477 9.19914 10.0821C5.16597 14.1153 4.108 19.997 6.02525 25C6.89769 26.627 9.84258 29.4049 14.6426 27.5C20.6426 25.1189 15.6426 16.5 20.1426 12.5C23.7426 9.3 27.7472 9.76184 29.2995 10.3928C29.201 10.288 29.1005 10.1845 28.9981 10.0821Z" fill="#8691BB"/>
<path d="M10.0383 30.48C15.6786 35.7688 24.5384 35.4838 29.8271 29.8435C33.7285 25.6828 34.5969 19.7701 32.5198 14.8313C31.5955 13.2332 28.5628 10.5514 23.8265 12.6096C17.9062 15.1824 23.1807 23.6361 18.8116 27.7787C15.3163 31.0928 11.2989 30.7599 9.72714 30.1792C9.829 30.2807 9.93273 30.381 10.0383 30.48Z" fill="#6284F5"/>
</svg>
