<svg width="92" height="24" viewBox="0 0 92 24" fill="none" xmlns="http://www.w3.org/2000/svg">
<path d="M87.5834 16.282C86.9421 16.282 86.3744 16.1476 85.8804 15.879C85.3951 15.6103 85.0137 15.2333 84.7364 14.748C84.4677 14.254 84.3334 13.6733 84.3334 13.006V12.837C84.3334 12.1783 84.4677 11.602 84.7364 11.108C85.0137 10.614 85.3951 10.2326 85.8804 9.96397C86.3744 9.69531 86.9421 9.56097 87.5834 9.56097C88.2247 9.56097 88.7881 9.69531 89.2734 9.96397C89.7674 10.2326 90.1487 10.614 90.4174 11.108C90.6947 11.602 90.8334 12.1783 90.8334 12.837V13.006C90.8334 13.6733 90.6947 14.254 90.4174 14.748C90.1487 15.2333 89.7674 15.6103 89.2734 15.879C88.7881 16.1476 88.2247 16.282 87.5834 16.282ZM87.5834 15.359C88.2594 15.359 88.7967 15.1466 89.1954 14.722C89.6027 14.2886 89.8064 13.708 89.8064 12.98V12.863C89.8064 12.135 89.6027 11.5586 89.1954 11.134C88.7967 10.7006 88.2594 10.484 87.5834 10.484C86.9161 10.484 86.3787 10.7006 85.9714 11.134C85.5641 11.5586 85.3604 12.135 85.3604 12.863V12.98C85.3604 13.708 85.5641 14.2886 85.9714 14.722C86.3787 15.1466 86.9161 15.359 87.5834 15.359Z" fill="black"/>
<path d="M79.9735 16.1V9.74298H80.9745V10.523H81.1565C81.2692 10.2456 81.4425 10.042 81.6765 9.91198C81.9105 9.78198 82.2182 9.71698 82.5995 9.71698H83.3535V10.653H82.5345C82.0752 10.653 81.7025 10.783 81.4165 11.043C81.1392 11.2943 81.0005 11.6886 81.0005 12.226V16.1H79.9735Z" fill="black"/>
<path d="M75.1922 16.282C74.5508 16.282 73.9875 16.1476 73.5022 15.879C73.0168 15.6016 72.6398 15.216 72.3712 14.722C72.1025 14.228 71.9682 13.656 71.9682 13.006V12.85C71.9682 12.1913 72.1025 11.615 72.3712 11.121C72.6398 10.627 73.0125 10.2456 73.4892 9.97697C73.9658 9.69964 74.5118 9.56097 75.1272 9.56097C75.7252 9.56097 76.2538 9.69097 76.7132 9.95097C77.1725 10.2023 77.5322 10.5663 77.7922 11.043C78.0522 11.5196 78.1822 12.0786 78.1822 12.72V13.188H72.9952C73.0212 13.8726 73.2422 14.41 73.6582 14.8C74.0742 15.1813 74.5942 15.372 75.2182 15.372C75.7642 15.372 76.1845 15.2463 76.4792 14.995C76.7738 14.7436 76.9992 14.4446 77.1552 14.098L78.0392 14.527C77.9092 14.7956 77.7272 15.0643 77.4932 15.333C77.2678 15.6016 76.9688 15.827 76.5962 16.009C76.2322 16.191 75.7642 16.282 75.1922 16.282ZM73.0082 12.343H77.1422C77.1075 11.7536 76.9038 11.2943 76.5312 10.965C76.1672 10.6356 75.6992 10.471 75.1272 10.471C74.5465 10.471 74.0698 10.6356 73.6972 10.965C73.3245 11.2943 73.0948 11.7536 73.0082 12.343Z" fill="black"/>
<path d="M64.5387 16.1V14.657L69.6087 8.131V7.975H64.6947V7H70.6877V8.443L65.6177 14.969V15.125H70.7917V16.1H64.5387Z" fill="black"/>
<path d="M56.7416 16.1L59.2896 12.876L56.8196 9.74298H58.0546L59.9526 12.2H60.1346L62.0196 9.74298H63.2676L60.7846 12.876L63.3326 16.1H62.0846L60.1346 13.565H59.9526L58.0026 16.1H56.7416Z" fill="black"/>
<path d="M51.7341 16.282C51.2921 16.282 50.8891 16.204 50.5251 16.048C50.1611 15.892 49.8751 15.6666 49.6671 15.372C49.4591 15.0773 49.3551 14.7176 49.3551 14.293C49.3551 13.8596 49.4591 13.5043 49.6671 13.227C49.8751 12.941 50.1611 12.7286 50.5251 12.59C50.8891 12.4426 51.2964 12.369 51.7471 12.369H53.8921V11.901C53.8921 11.4503 53.7577 11.095 53.4891 10.835C53.2291 10.575 52.8391 10.445 52.3191 10.445C51.8077 10.445 51.4091 10.5706 51.1231 10.822C50.8371 11.0646 50.6421 11.394 50.5381 11.81L49.5761 11.498C49.6801 11.1426 49.8447 10.822 50.0701 10.536C50.2954 10.2413 50.5944 10.0073 50.9671 9.83397C51.3484 9.65197 51.8034 9.56097 52.3321 9.56097C53.1467 9.56097 53.7794 9.77331 54.2301 10.198C54.6807 10.614 54.9061 11.2033 54.9061 11.966V14.839C54.9061 15.099 55.0274 15.229 55.2701 15.229H55.8551V16.1H54.9581C54.6721 16.1 54.4424 16.022 54.2691 15.866C54.0957 15.7013 54.0091 15.4846 54.0091 15.216V15.151H53.8531C53.7577 15.3156 53.6277 15.489 53.4631 15.671C53.3071 15.8443 53.0904 15.9873 52.8131 16.1C52.5357 16.2213 52.1761 16.282 51.7341 16.282ZM51.8511 15.398C52.4577 15.398 52.9474 15.2203 53.3201 14.865C53.7014 14.501 53.8921 13.994 53.8921 13.344V13.201H51.7861C51.3787 13.201 51.0407 13.292 50.7721 13.474C50.5121 13.6473 50.3821 13.9116 50.3821 14.267C50.3821 14.6223 50.5164 14.8996 50.7851 15.099C51.0624 15.2983 51.4177 15.398 51.8511 15.398Z" fill="black"/>
<path d="M45.0995 16.1V9.74298H46.1005V10.523H46.2825C46.3952 10.2456 46.5685 10.042 46.8025 9.91198C47.0365 9.78198 47.3442 9.71698 47.7255 9.71698H48.4795V10.653H47.6605C47.2012 10.653 46.8285 10.783 46.5425 11.043C46.2652 11.2943 46.1265 11.6886 46.1265 12.226V16.1H45.0995Z" fill="black"/>
<path d="M38.04 16.1V7H43.539V7.988H39.132V11.043H43.188V12.031H39.132V16.1H38.04Z" fill="black"/>
<path d="M23 21.0001C21.7852 21.0001 20.6065 20.7621 19.4966 20.2926C18.4249 19.8393 17.4624 19.1904 16.636 18.364C15.8096 17.5377 15.1608 16.5752 14.7075 15.5034C14.238 14.3935 14 13.2148 14 12C14 10.7852 14.238 9.60649 14.7075 8.49663C15.1608 7.42488 15.8096 6.46241 16.636 5.63602C17.4624 4.80963 18.4249 4.16078 19.4966 3.70745C20.6066 3.238 21.7852 3 23 3C24.2148 3 25.3935 3.238 26.5034 3.70745C27.5751 4.16078 28.5376 4.80963 29.364 5.63602C30.1904 6.46241 30.8392 7.42488 31.2925 8.49663C31.762 9.60649 32 10.7852 32 12C32 13.2148 31.762 14.3935 31.2925 15.5034C30.8392 16.5751 30.1904 17.5376 29.364 18.364C28.5376 19.1904 27.5751 19.8392 26.5034 20.2925C25.3935 20.762 24.2148 21 23 21V21.0001Z" fill="white"/>
<path d="M23 20.5227C27.707 20.5227 31.5227 16.7069 31.5227 12C31.5227 7.29299 27.707 3.47723 23 3.47723C18.293 3.47723 14.4773 7.29299 14.4773 12C14.4773 16.7069 18.293 20.5227 23 20.5227Z" fill="black"/>
<path d="M23.2688 6C22.8373 6.00223 22.4105 6.09301 22.0127 6.26716C21.6149 6.44131 21.254 6.69545 20.9504 7.01501C20.6469 7.33457 20.4067 7.71331 20.2437 8.12961C20.0806 8.54591 19.9978 8.99161 20 9.44126V10.5779H22.6559V8.93112C22.6559 8.85378 22.6705 8.7772 22.6988 8.70574C22.7272 8.63428 22.7688 8.56935 22.8213 8.51466C22.8738 8.45996 22.9361 8.4166 23.0046 8.387C23.0732 8.35741 23.1467 8.34219 23.2209 8.3422H23.3166C23.3909 8.34219 23.4643 8.35741 23.5329 8.387C23.6015 8.41659 23.6638 8.45996 23.7163 8.51466C23.7687 8.56935 23.8104 8.63428 23.8388 8.70574C23.8671 8.7772 23.8818 8.85378 23.8817 8.93112V13.3458C24.2305 13.3458 24.5759 13.2742 24.8981 13.1352C25.2203 12.9961 25.5131 12.7922 25.7597 12.5352C26.0064 12.2781 26.202 11.973 26.3355 11.6372C26.4689 11.3014 26.5376 10.9414 26.5376 10.5779V9.44126C26.5395 8.53021 26.1952 7.65542 25.5801 7.00809C25.2783 6.68865 24.9185 6.435 24.5217 6.26193C24.1249 6.08886 23.6989 5.99981 23.2688 6Z" fill="white"/>
<path d="M23.3168 15.581H23.221C23.1468 15.581 23.0733 15.5658 23.0048 15.5362C22.9362 15.5066 22.8739 15.4633 22.8215 15.4086C22.769 15.3539 22.7274 15.289 22.699 15.2176C22.6706 15.1461 22.656 15.0695 22.656 14.9922V10.5775C22.3072 10.5775 21.9619 10.649 21.6396 10.7881C21.3174 10.9272 21.0246 11.1311 20.778 11.3881C20.5314 11.6452 20.3357 11.9503 20.2023 12.2861C20.0688 12.6219 20.0001 12.9819 20.0002 13.3454V14.4662C19.9957 14.9165 20.077 15.3633 20.2393 15.7806C20.4016 16.198 20.6417 16.5777 20.9456 16.8977C21.2496 17.2178 21.6115 17.4718 22.0102 17.6453C22.409 17.8187 22.8368 17.9079 23.2689 17.9079C23.701 17.9079 24.1289 17.8187 24.5276 17.6453C24.9264 17.4718 25.2883 17.2178 25.5922 16.8977C25.8962 16.5777 26.1363 16.198 26.2986 15.7806C26.4609 15.3633 26.5421 14.9165 26.5377 14.4662V13.3454H23.8819V14.9922C23.8819 15.0695 23.8672 15.1461 23.8388 15.2176C23.8104 15.289 23.7688 15.3539 23.7163 15.4086C23.6639 15.4633 23.6016 15.5066 23.533 15.5362C23.4644 15.5658 23.391 15.581 23.3168 15.581Z" fill="white"/>
<path d="M10 21.0001C8.78524 21.0001 7.60649 20.7621 6.49663 20.2926C5.42488 19.8393 4.46241 19.1904 3.63602 18.364C2.80963 17.5377 2.16078 16.5752 1.70745 15.5034C1.238 14.3935 1 13.2148 1 12C1 10.7852 1.238 9.60649 1.70745 8.49663C2.16078 7.42488 2.80963 6.46241 3.63602 5.63602C4.46241 4.80963 5.42488 4.16078 6.49663 3.70745C7.60655 3.238 8.78524 3 10 3C11.2148 3 12.3935 3.238 13.5034 3.70745C14.5751 4.16078 15.5376 4.80963 16.364 5.63602C17.1904 6.46241 17.8392 7.42488 18.2925 8.49663C18.762 9.60649 19 10.7852 19 12C19 13.2148 18.762 14.3935 18.2925 15.5034C17.8392 16.5751 17.1904 17.5376 16.364 18.364C15.5376 19.1904 14.5751 19.8392 13.5034 20.2925C12.3935 20.762 11.2148 21 10 21V21.0001Z" fill="white"/>
<path d="M10 20.5227C14.707 20.5227 18.5227 16.7069 18.5227 12C18.5227 7.29299 14.707 3.47723 10 3.47723C5.29302 3.47723 1.47726 7.29299 1.47726 12C1.47726 16.7069 5.29302 20.5227 10 20.5227Z" fill="black"/>
<path d="M14.4891 12C14.4891 11.087 14.2149 10.237 13.7448 9.52752L15.139 8.13338L13.8854 6.87988L12.4952 8.27015C11.7811 7.79092 10.9227 7.51095 9.99993 7.51095C9.08699 7.51095 8.23698 7.78514 7.52749 8.25517L6.13334 6.86102L4.87985 8.11452L6.27012 9.50479C5.79089 10.2188 5.51092 11.0773 5.51092 12C5.51092 12.9129 5.78511 13.7629 6.25514 14.4724L4.86099 15.8665L6.11455 17.1201L7.50482 15.7298C8.21888 16.2091 9.07734 16.489 9.99999 16.489C10.9129 16.489 11.7629 16.2148 12.4724 15.7449L13.8666 17.139L15.1201 15.8855L13.7298 14.4952C14.209 13.7811 14.4891 12.9227 14.4891 12ZM7.28371 12C7.28371 10.5022 8.50222 9.28368 9.99999 9.28368C11.4978 9.28368 12.7163 10.5022 12.7163 12C12.7163 13.4977 11.4978 14.7162 9.99999 14.7162C8.50222 14.7162 7.28371 13.4977 7.28371 12Z" fill="white"/>
</svg>
