<svg width="90" height="24" viewBox="0 0 90 24" fill="none" xmlns="http://www.w3.org/2000/svg">
<g clip-path="url(#clip0_594_2560)">
<path d="M14.0547 1.15211C10.5859 0.397018 7.11707 0.480326 5.78059 1.15211C5.18325 1.45344 5.56257 5.31932 5.78059 5.44163C5.77173 5.44694 5.76286 5.45049 5.754 5.45581C6.20777 5.64724 7.12062 6.16836 10.281 5.93971C10.7011 6.40411 8.71766 6.93941 6.13332 6.99968C4.38384 7.03867 3.91057 6.95891 3.87512 6.89333C3.27246 7.49244 2.69462 8.2174 2.19477 9.03808C2.89846 9.35182 4.15518 9.71519 6.69521 9.55566C7.18266 10.0573 4.70467 11.9379 1.71973 11.9876C1.42904 11.9929 1.16848 11.9876 0.939821 11.9698C0.780293 12.5796 0.673942 13.2142 0.636719 13.8664C1.28192 13.9249 2.33657 13.87 4.15164 13.2301C4.65149 13.5031 3.13421 15.4901 0.794474 16.1991C0.860057 16.5341 0.945138 16.8709 1.05149 17.2094C1.10998 17.3955 1.17734 17.5799 1.25001 17.7607C1.85622 17.688 2.64499 17.5161 3.68369 17.1492C4.04174 17.3441 3.36286 18.4201 2.08665 19.2744C2.55105 19.932 3.11825 20.5329 3.76168 21.0576C4.46183 21.6319 5.2506 22.1176 6.09078 22.4951C6.62431 22.7326 7.18088 22.9294 7.74809 23.0747C8.14159 23.1757 8.54041 23.2537 8.94278 23.3051C11.3428 23.6153 13.8243 23.002 15.6996 21.0771C16.8536 19.893 17.4243 18.8153 17.6051 17.8369C18.5162 15.6868 18.5499 12.2907 17.5732 10.589C17.0255 10.9134 16.3909 11.2254 15.7209 11.4629C15.5667 11.8812 15.3965 12.4307 15.2973 13.0085C14.9038 12.6647 14.5174 12.3616 14.1753 12.0921C14.0813 12.0177 13.9909 11.9486 13.9058 11.8812C13.3723 11.9291 12.8441 11.9007 12.3478 11.7695C9.6571 11.0552 10.6621 8.81474 13.5088 9.97752C15.7794 10.9046 18.4488 9.67265 19.2695 9.24192C19.5194 9.0629 19.7481 8.85551 19.9502 8.62154C22.3697 5.81208 17.5218 1.90721 14.053 1.15389L14.0547 1.15211Z" fill="#1C241C" stroke="#1C241C" stroke-width="0.531758" stroke-miterlimit="10"/>
<path d="M10.1229 23.7341C9.72051 23.7341 9.31283 23.7075 8.89806 23.6544C8.4957 23.603 8.07915 23.5232 7.66084 23.4168C7.08299 23.268 6.50692 23.0659 5.94858 22.8177C5.07649 22.426 4.26468 21.9261 3.53794 21.3306C2.86084 20.7793 2.2759 20.1554 1.79732 19.4783C1.74237 19.4003 1.7211 19.3028 1.73883 19.2089C1.75655 19.1149 1.8115 19.0316 1.88949 18.9784C2.62332 18.4874 3.06822 17.984 3.27915 17.6561C2.5471 17.8883 1.88063 18.0408 1.29215 18.1099C1.1344 18.1276 0.981959 18.039 0.921693 17.8919C0.840157 17.6934 0.771028 17.4984 0.712535 17.314C0.606183 16.979 0.515784 16.6263 0.444883 16.2665C0.409433 16.0874 0.515784 15.912 0.689492 15.8588C2.31135 15.366 3.38019 14.3078 3.74887 13.7371C2.49038 14.1377 1.457 14.2954 0.604411 14.2174C0.412978 14.1997 0.271176 14.0349 0.281811 13.8434C0.320807 13.1894 0.425386 12.5282 0.597321 11.8795C0.639861 11.7146 0.795843 11.603 0.966006 11.6154C1.18403 11.6313 1.43395 11.6366 1.71401 11.6331C4.01298 11.5941 5.76069 10.4863 6.26054 9.93324C4.45966 10.0077 3.08063 9.81979 2.05256 9.36248C1.96039 9.32171 1.88949 9.24195 1.85759 9.14446C1.82568 9.04697 1.83986 8.94239 1.89304 8.85377C2.38934 8.03486 2.97251 7.29217 3.6248 6.64166C3.70456 6.56189 3.81623 6.52644 3.9279 6.54239C3.9793 6.54948 4.02716 6.56898 4.0697 6.59557C4.17073 6.61684 4.59614 6.67711 6.12583 6.64343C7.34178 6.61507 8.29186 6.49099 8.94946 6.34919C6.93942 6.36514 6.13469 6.00886 5.71106 5.82275L5.61711 5.78198C5.48949 5.72881 5.40441 5.60473 5.40087 5.46647C5.40087 5.45761 5.40087 5.44697 5.40087 5.43811C5.09599 4.60857 5.1084 2.51876 5.1084 2.49395C5.13144 1.49956 5.28565 1.00325 5.62243 0.833088C7.11135 0.0850826 10.7681 0.0726749 14.1306 0.802956C17.3176 1.49601 20.143 4.00945 20.7828 5.92201C21.1409 6.99439 20.9477 8.0065 20.221 8.84845C20.0029 9.10015 19.753 9.3288 19.4783 9.52556C19.4641 9.53442 19.4499 9.54328 19.4357 9.55214C19.0546 9.75244 18.4537 10.0343 17.7306 10.2647C17.7944 10.2948 17.8458 10.3445 17.8812 10.4065C18.8916 12.1648 18.9199 15.6018 17.9468 17.9326C17.7306 19.0422 17.0605 20.1802 15.9545 21.3164C14.4177 22.8939 12.3811 23.7288 10.1229 23.7288V23.7341ZM2.58787 19.3542C2.98669 19.87 3.4564 20.3486 3.98639 20.7811C4.66527 21.3359 5.42214 21.8038 6.2375 22.169C6.76039 22.4012 7.29747 22.5908 7.83809 22.7291C8.22805 22.8284 8.61446 22.9028 8.98846 22.9507C11.5037 23.275 13.7973 22.5199 15.4458 20.8272C16.465 19.7814 17.0747 18.7516 17.2555 17.7713C17.2608 17.7465 17.2679 17.7217 17.2786 17.6969C18.1205 15.7117 18.1666 12.7409 17.4257 11.0801C16.956 11.3371 16.4721 11.5604 15.9988 11.7377C15.8783 12.0851 15.7329 12.5619 15.6461 13.0688C15.6248 13.1947 15.5362 13.2993 15.4156 13.3436C15.2951 13.3861 15.1604 13.3613 15.0647 13.2762C14.7013 12.9589 14.3379 12.6718 14.0153 12.4183L13.7955 12.2464C13.2425 12.2818 12.7267 12.2375 12.257 12.1134C11.2467 11.844 10.5855 11.3335 10.4455 10.7096C10.3586 10.3214 10.4898 9.94564 10.8071 9.67799C11.3991 9.17814 12.4591 9.16751 13.6431 9.6514C15.7524 10.5129 18.3119 9.34299 19.083 8.94239C19.3046 8.78109 19.5066 8.59498 19.6821 8.39291C20.244 7.74062 20.3876 6.9873 20.1075 6.15421C19.5403 4.46145 16.8851 2.13589 13.9781 1.5031C10.4667 0.739145 7.16276 0.880947 5.9663 1.46056C5.68093 1.87888 5.84045 4.6192 6.04784 5.20236C6.52288 5.40975 7.50131 5.78907 10.2558 5.59055C10.3639 5.58346 10.4703 5.626 10.5447 5.70576C10.6936 5.87061 10.7326 6.08331 10.6493 6.27652C10.2363 7.23545 6.5601 7.34712 6.14178 7.35776C4.91874 7.38434 4.3019 7.35953 3.97398 7.30281C3.51667 7.77607 3.09835 8.30074 2.72435 8.86795C3.69747 9.19941 4.99496 9.30931 6.67354 9.20473C6.77812 9.19764 6.87738 9.23663 6.95005 9.31108C7.12199 9.48833 7.15921 9.74003 7.05109 10.0024C6.67886 10.9064 4.36394 12.3013 1.72642 12.3456C1.54562 12.3492 1.37546 12.3456 1.21593 12.3421C1.12553 12.7374 1.05995 13.1362 1.02095 13.5315C1.83277 13.5368 2.81652 13.3276 4.03425 12.8969C4.12997 12.8632 4.23454 12.8721 4.3214 12.9199C4.51992 13.0281 4.62273 13.2425 4.59791 13.4925C4.51992 14.244 3.14621 15.7418 1.20707 16.4366C1.26025 16.6653 1.32051 16.8886 1.38964 17.1031C1.41623 17.19 1.44813 17.2804 1.48004 17.3708C2.09333 17.2733 2.79348 17.0872 3.5663 16.8142C3.66025 16.7805 3.76482 16.7894 3.85345 16.8372C4.02184 16.9294 4.12465 17.0978 4.13351 17.3016C4.15833 17.8263 3.52376 18.6576 2.58787 19.356V19.3542ZM13.9054 11.5267C13.9852 11.5267 14.0614 11.5533 14.1235 11.603L14.4532 11.8617C14.6464 12.0142 14.8555 12.179 15.0735 12.3563C15.1728 11.9592 15.2898 11.6083 15.3837 11.3495C15.4174 11.2485 15.4972 11.1651 15.6018 11.1279C16.0963 10.9524 16.6121 10.7185 17.1084 10.4455C15.9687 10.7256 14.6251 10.8177 13.3737 10.3072C12.2712 9.85702 11.548 9.97755 11.2626 10.2186C11.1492 10.3143 11.1066 10.426 11.135 10.5536C11.1935 10.8124 11.5693 11.197 12.436 11.4275C12.865 11.5409 13.3489 11.5764 13.8718 11.5285C13.8824 11.5285 13.893 11.5285 13.9037 11.5285L13.9054 11.5267Z" fill="#1C241C"/>
<path d="M4.18669 6.72496L5.95389 5.13324M10.1229 23.7341C9.72051 23.7341 9.31283 23.7075 8.89806 23.6544C8.4957 23.603 8.07915 23.5232 7.66084 23.4168C7.08299 23.268 6.50692 23.0659 5.94858 22.8177C5.07649 22.426 4.26468 21.9261 3.53794 21.3306C2.86084 20.7793 2.2759 20.1554 1.79732 19.4783C1.74237 19.4003 1.7211 19.3028 1.73883 19.2089C1.75655 19.1149 1.8115 19.0316 1.88949 18.9784C2.62332 18.4874 3.06822 17.984 3.27915 17.6561C2.5471 17.8883 1.88063 18.0408 1.29215 18.1099C1.1344 18.1276 0.981959 18.039 0.921693 17.8919C0.840157 17.6934 0.771028 17.4984 0.712535 17.314C0.606183 16.979 0.515784 16.6263 0.444883 16.2665C0.409433 16.0874 0.515784 15.912 0.689492 15.8588C2.31135 15.366 3.38019 14.3078 3.74887 13.7371C2.49038 14.1377 1.457 14.2954 0.604411 14.2174C0.412978 14.1997 0.271176 14.0349 0.281811 13.8434C0.320807 13.1894 0.425386 12.5282 0.597321 11.8795C0.639861 11.7146 0.795843 11.603 0.966006 11.6154C1.18403 11.6313 1.43395 11.6366 1.71401 11.6331C4.01298 11.5941 5.76069 10.4863 6.26054 9.93324C4.45966 10.0077 3.08063 9.81979 2.05256 9.36248C1.96039 9.32171 1.88949 9.24195 1.85759 9.14446C1.82568 9.04697 1.83986 8.94239 1.89304 8.85377C2.38934 8.03486 2.97251 7.29217 3.6248 6.64166C3.70456 6.56189 3.81623 6.52644 3.9279 6.54239C3.9793 6.54948 4.02716 6.56898 4.0697 6.59557C4.17073 6.61684 4.59614 6.67711 6.12583 6.64343C7.34178 6.61507 8.29186 6.49099 8.94946 6.34919C6.93942 6.36514 6.13469 6.00886 5.71106 5.82275L5.61711 5.78198C5.48949 5.7288 5.40441 5.60473 5.40087 5.46647C5.40087 5.45761 5.40087 5.44697 5.40087 5.43811C5.09599 4.60857 5.1084 2.51876 5.1084 2.49395C5.13144 1.49956 5.28565 1.00325 5.62243 0.833088C7.11135 0.0850826 10.7681 0.0726749 14.1306 0.802956C17.3176 1.49601 20.143 4.00945 20.7828 5.92201C21.1409 6.99439 20.9477 8.0065 20.221 8.84845C20.0029 9.10015 19.753 9.32881 19.4783 9.52556C19.4641 9.53442 19.4499 9.54328 19.4357 9.55214C19.0546 9.75244 18.4537 10.0343 17.7306 10.2647C17.7944 10.2948 17.8458 10.3445 17.8812 10.4065C18.8916 12.1648 18.9199 15.6018 17.9468 17.9326C17.7306 19.0422 17.0605 20.1802 15.9545 21.3164C14.4177 22.8939 12.3811 23.7288 10.1229 23.7288V23.7341ZM2.58787 19.3542C2.98669 19.87 3.4564 20.3486 3.98639 20.7811C4.66527 21.3359 5.42214 21.8038 6.2375 22.169C6.76039 22.4012 7.29747 22.5908 7.83809 22.7291C8.22805 22.8284 8.61446 22.9028 8.98846 22.9507C11.5037 23.275 13.7973 22.5199 15.4458 20.8272C16.465 19.7814 17.0747 18.7516 17.2555 17.7713C17.2608 17.7465 17.2679 17.7217 17.2786 17.6969C18.1205 15.7117 18.1666 12.7409 17.4257 11.0801C16.956 11.3371 16.4721 11.5604 15.9988 11.7377C15.8783 12.0851 15.7329 12.5619 15.6461 13.0688C15.6248 13.1947 15.5362 13.2993 15.4156 13.3436C15.2951 13.3861 15.1604 13.3613 15.0647 13.2762C14.7013 12.9589 14.3379 12.6718 14.0153 12.4183L13.7955 12.2464C13.2425 12.2818 12.7267 12.2375 12.257 12.1134C11.2467 11.844 10.5855 11.3335 10.4455 10.7096C10.3586 10.3214 10.4898 9.94564 10.8071 9.67799C11.3991 9.17814 12.4591 9.16751 13.6431 9.6514C15.7524 10.5129 18.3119 9.34299 19.083 8.94239C19.3046 8.78109 19.5066 8.59498 19.6821 8.39291C20.244 7.74062 20.3876 6.9873 20.1075 6.15421C19.5403 4.46145 16.8851 2.13589 13.9781 1.5031C10.4667 0.739145 7.16276 0.880947 5.9663 1.46056C5.68093 1.87888 5.84045 4.6192 6.04784 5.20236C6.52288 5.40975 7.50131 5.78907 10.2558 5.59055C10.3639 5.58346 10.4703 5.626 10.5447 5.70576C10.6936 5.87061 10.7326 6.08331 10.6493 6.27652C10.2363 7.23545 6.5601 7.34712 6.14178 7.35776C4.91874 7.38434 4.3019 7.35953 3.97398 7.30281C3.51667 7.77607 3.09835 8.30074 2.72435 8.86795C3.69747 9.19941 4.99496 9.30931 6.67354 9.20473C6.77812 9.19764 6.87738 9.23663 6.95005 9.31108C7.12199 9.48833 7.15921 9.74003 7.05109 10.0024C6.67886 10.9064 4.36394 12.3013 1.72642 12.3456C1.54562 12.3492 1.37546 12.3456 1.21593 12.3421C1.12553 12.7374 1.05995 13.1362 1.02095 13.5315C1.83277 13.5368 2.81652 13.3276 4.03425 12.8969C4.12996 12.8632 4.23454 12.8721 4.3214 12.9199C4.51992 13.0281 4.62273 13.2425 4.59791 13.4925C4.51992 14.244 3.14621 15.7418 1.20707 16.4366C1.26025 16.6653 1.32051 16.8886 1.38964 17.1031C1.41623 17.19 1.44813 17.2804 1.48004 17.3708C2.09333 17.2733 2.79348 17.0872 3.5663 16.8142C3.66025 16.7805 3.76482 16.7894 3.85345 16.8372C4.02184 16.9294 4.12465 17.0978 4.13351 17.3016C4.15833 17.8263 3.52376 18.6576 2.58787 19.356V19.3542ZM13.9054 11.5267C13.9852 11.5267 14.0614 11.5533 14.1235 11.603L14.4532 11.8617C14.6464 12.0142 14.8555 12.179 15.0735 12.3563C15.1728 11.9592 15.2898 11.6083 15.3837 11.3495C15.4174 11.2485 15.4972 11.1651 15.6018 11.1279C16.0963 10.9524 16.6121 10.7185 17.1084 10.4455C15.9687 10.7256 14.6251 10.8177 13.3737 10.3072C12.2712 9.85702 11.548 9.97755 11.2626 10.2186C11.1492 10.3143 11.1066 10.426 11.135 10.5536C11.1935 10.8124 11.5693 11.197 12.436 11.4275C12.865 11.5409 13.3489 11.5764 13.8718 11.5285C13.8824 11.5285 13.893 11.5285 13.9037 11.5285L13.9054 11.5267Z" stroke="#1C241C" stroke-width="0.531758" stroke-miterlimit="10"/>
<path d="M12.4376 18.4626C14.0754 16.0874 13.1395 13.8664 12.1752 12.6788C14.0027 13.207 15.2878 14.9122 15.1673 16.8478C15.0272 19.0971 13.0491 20.8041 10.7466 20.6605C8.44408 20.5187 6.69105 18.5813 6.83108 16.332C6.88957 15.389 7.27067 14.5418 7.86446 13.8859C9.30553 12.6274 12.4642 16.9347 12.4376 18.4626Z" fill="white" stroke="#1C241C" stroke-width="0.531758" stroke-miterlimit="10"/>
<path d="M11.0163 21.0239C10.9206 21.0239 10.8249 21.0204 10.7274 21.0151C9.52031 20.9406 8.41426 20.4106 7.61308 19.5244C6.80835 18.6363 6.40599 17.4948 6.48043 16.3108C6.54247 15.3146 6.93065 14.3947 7.60599 13.6485C7.61485 13.6378 7.62548 13.629 7.63612 13.6183C7.93745 13.356 8.46566 13.122 9.27748 13.5013C10.5962 14.1146 12.0568 16.068 12.5886 17.4984C13.606 15.2934 12.3528 13.4552 11.9044 12.9022C11.8069 12.7817 11.798 12.6115 11.8849 12.4839C11.9699 12.3545 12.1295 12.296 12.2784 12.3386C14.3185 12.927 15.655 14.7917 15.5256 16.8691C15.3803 19.2142 13.3862 21.0222 11.0181 21.0239H11.0163ZM8.1147 14.1394C7.55813 14.7616 7.2373 15.5273 7.1859 16.3533C7.12386 17.3442 7.46241 18.3013 8.13774 19.0476C8.81485 19.7956 9.74897 20.2423 10.7699 20.3061C12.8739 20.4355 14.6872 18.8756 14.8148 16.8248C14.8982 15.4635 14.2335 14.2121 13.1185 13.4907C13.7123 14.6677 14.175 16.566 12.7286 18.6629C12.64 18.7923 12.4769 18.8473 12.328 18.7994C12.1791 18.7516 12.0798 18.6115 12.0816 18.4555C12.0993 17.4931 10.4278 14.8201 8.9726 14.143C8.44262 13.8966 8.20333 14.0615 8.11293 14.1394H8.1147Z" fill="#1C241C" stroke="#1C241C" stroke-width="0.531758" stroke-linejoin="round"/>
<path d="M5.70703 5.43811C5.72298 5.44343 5.73716 5.45052 5.75312 5.45584L5.70703 5.43811Z" fill="#1C241C"/>
<path d="M5.70703 5.43811C5.72298 5.44343 5.73716 5.45052 5.75312 5.45584" stroke="#1C241C" stroke-width="0.531758" stroke-miterlimit="10"/>
<path d="M3.87458 6.8933C3.86926 6.88089 3.87812 6.87025 3.89585 6.85962L3.87458 6.8933Z" fill="#1C241C"/>
<path d="M3.87458 6.8933C3.86926 6.88089 3.87812 6.87025 3.89585 6.85962" stroke="#1C241C" stroke-width="0.531758" stroke-miterlimit="10"/>
<path d="M19.1452 7.80449C19.3313 7.81512 19.489 7.67864 19.5015 7.49784C19.5121 7.31704 19.3721 7.16106 19.1859 7.14865C18.9998 7.13802 18.8421 7.2745 18.8297 7.4553C18.819 7.6361 18.9591 7.79208 19.1452 7.80449Z" fill="#1C241C" stroke="#1C241C" stroke-width="0.531758" stroke-miterlimit="10"/>
<path d="M19.2798 9.23658C19.0405 9.56981 18.4094 10.0909 17.5746 10.5855C17.0269 10.9098 16.3923 11.2218 15.7223 11.4593C15.1338 11.6703 14.517 11.8227 13.9072 11.8776C13.3737 11.9255 12.8455 11.8971 12.3492 11.766C9.65849 11.0516 10.6635 8.81117 13.5102 9.97395C15.7808 10.901 18.4502 9.66907 19.2709 9.23835C19.2744 9.23835 19.2762 9.2348 19.2798 9.23303V9.23658Z" fill="#1C241C" stroke="#1C241C" stroke-width="0.531758" stroke-miterlimit="10"/>
<path d="M1.71936 11.9876C1.42867 11.9929 1.16811 11.9876 0.939453 11.9698C1.21774 10.9046 1.6591 9.91726 2.1944 9.03809C2.89809 9.35182 4.15482 9.71519 6.69484 9.55566C7.18229 10.0573 4.7043 11.9379 1.71936 11.9876Z" fill="#1C241C" stroke="#1C241C" stroke-width="0.531758" stroke-miterlimit="10"/>
<path d="M0.794091 16.1974C0.638108 15.4015 0.592023 14.6198 0.638108 13.8647C1.28331 13.9232 2.33796 13.8683 4.15303 13.2284C4.65288 13.5014 3.1356 15.4884 0.795863 16.1974H0.794091Z" fill="#1C241C" stroke="#1C241C" stroke-width="0.531758" stroke-miterlimit="10"/>
<path d="M6.1332 6.99968C4.38371 7.03868 3.91045 6.95891 3.875 6.89333C4.49716 6.27117 5.1459 5.78196 5.75388 5.45581C6.20764 5.64724 7.1205 6.16837 10.2809 5.93971C10.701 6.40411 8.71754 6.93941 6.1332 6.99968Z" fill="#1C241C" stroke="#1C241C" stroke-width="0.531758" stroke-miterlimit="10"/>
<path d="M2.08761 19.2727C1.75083 18.7977 1.46722 18.289 1.25098 17.759C1.85718 17.6863 2.64595 17.5144 3.68466 17.1475C4.04271 17.3424 3.36383 18.4184 2.08761 19.2727Z" fill="#1C241C" stroke="#1C241C" stroke-width="0.531758" stroke-miterlimit="10"/>
<path d="M13.4319 12.257C13.0153 12.257 12.6218 12.2091 12.2567 12.1116C11.2463 11.8422 10.5852 11.3317 10.4452 10.7078C10.3583 10.3196 10.4895 9.94382 10.8067 9.67617C11.3988 9.17632 12.4587 9.16568 13.6428 9.64958C15.7734 10.5181 18.363 9.31812 19.1057 8.92817L20.4316 8.23511L19.5683 9.44574C19.2794 9.84633 18.5846 10.4011 17.7551 10.8939C17.2109 11.2147 16.6366 11.4948 16.0765 11.7093V11.7128L15.8407 11.7979C15.176 12.0336 14.5379 12.1807 13.9406 12.2339C13.7686 12.2499 13.5985 12.257 13.4336 12.257H13.4319ZM12.0387 10.0023C11.6717 10.0023 11.4112 10.0945 11.2641 10.2168C11.1506 10.3125 11.1081 10.4242 11.1364 10.5518C11.1949 10.8106 11.5707 11.1952 12.4375 11.4257C12.8664 11.5391 13.3503 11.5745 13.8732 11.5267C14.3784 11.4806 14.9226 11.3601 15.4915 11.1669L15.5997 11.1279C16.0942 10.9524 16.61 10.7184 17.1063 10.4454C15.9683 10.7237 14.6248 10.8159 13.3734 10.3054C12.8345 10.0856 12.3878 10.0023 12.0369 10.0023H12.0387Z" fill="#1C241C" stroke="#1C241C" stroke-width="0.531758" stroke-miterlimit="10"/>
<path d="M1.53877 12.3439C1.31189 12.3439 1.10273 12.3368 0.914845 12.3226L0.491211 12.2907L0.599335 11.8795C0.872304 10.8355 1.30835 9.81625 1.89505 8.85377L2.05635 8.58789L2.34173 8.71374C3.34852 9.16219 4.76654 9.31994 6.67555 9.20118L6.83863 9.19055L6.95207 9.30754C7.124 9.48479 7.16123 9.73649 7.0531 9.99882C6.68087 10.9028 4.36595 12.2978 1.72843 12.3421C1.66462 12.3421 1.60258 12.3421 1.54055 12.3421L1.53877 12.3439ZM1.40583 11.6349C1.5051 11.6349 1.6079 11.6349 1.71603 11.6349C4.01499 11.5959 5.7627 10.488 6.26256 9.93501C4.62829 10.0024 3.33966 9.85347 2.34705 9.48479C1.95 10.1778 1.63449 10.8993 1.40761 11.6366L1.40583 11.6349Z" fill="#1C241C" stroke="#1C241C" stroke-width="0.531758" stroke-miterlimit="10"/>
<path d="M0.520895 16.6511L0.444676 16.2665C0.286921 15.4671 0.233746 14.6535 0.281604 13.8435L0.302874 13.4783L0.666242 13.512C1.52946 13.59 2.6302 13.3879 4.0305 12.8934L4.17939 12.8402L4.31765 12.9164C4.51617 13.0246 4.61897 13.239 4.59416 13.489C4.51262 14.2795 2.99534 15.8978 0.893125 16.5359L0.51735 16.6494L0.520895 16.6511ZM0.976434 14.237C0.965799 14.735 0.997704 15.2349 1.07215 15.7294C2.48131 15.1994 3.41188 14.2618 3.75044 13.7371C2.6692 14.081 1.7528 14.2476 0.976434 14.237Z" fill="#1C241C" stroke="#1C241C" stroke-width="0.531758" stroke-miterlimit="10"/>
<path d="M5.26595 7.36483C3.72563 7.36483 3.65472 7.23366 3.56255 7.06172L3.43848 6.82952L3.62459 6.64341C4.25738 6.01062 4.93626 5.49127 5.58678 5.14385L5.73567 5.06409L5.89165 5.12967C5.92356 5.14385 5.95901 5.15803 5.99623 5.17576C6.45 5.37605 7.3983 5.79437 10.2556 5.58698L10.4275 5.57457L10.5428 5.7022C10.6917 5.86704 10.7306 6.07974 10.6473 6.27295C10.3123 7.05109 7.65709 7.31874 6.13981 7.35419C5.8048 7.36128 5.51588 7.36483 5.26595 7.36483ZM4.66329 6.64518C4.97526 6.65582 5.43966 6.65936 6.12385 6.64518C7.33981 6.61682 8.28988 6.49274 8.94749 6.35094C7.02961 6.36689 6.21071 6.04429 5.77289 5.85286C5.40775 6.06202 5.03375 6.33144 4.66329 6.64695V6.64518Z" fill="#1C241C" stroke="#1C241C" stroke-width="0.531758" stroke-miterlimit="10"/>
<path d="M1.99927 19.7601L1.79897 19.4783C1.4427 18.9766 1.14846 18.4449 0.923346 17.8936L0.746094 17.4629L1.20872 17.408C1.88406 17.3282 2.67815 17.1279 3.56618 16.8142L3.71507 16.761L3.85333 16.8354C4.02172 16.9276 4.12453 17.096 4.13339 17.2998C4.15998 17.8795 3.38184 18.8331 2.28465 19.5687L1.9975 19.7601H1.99927ZM1.7653 18.0408C1.8876 18.2907 2.02586 18.5353 2.17829 18.7746C2.74196 18.3509 3.09824 17.9397 3.27903 17.6561C2.73664 17.828 2.2297 17.9557 1.76352 18.039L1.7653 18.0408Z" fill="#1C241C" stroke="#1C241C" stroke-width="0.531758" stroke-miterlimit="10"/>
<path d="M16.9188 5.69335C16.8869 6.20206 16.7079 6.66824 16.426 7.05465C15.9067 7.7672 15.0328 8.20679 14.0721 8.1483C12.5903 8.05613 11.4612 6.80827 11.5498 5.36189C11.5711 5.02688 11.6562 4.71137 11.7909 4.42422C12.2411 3.4706 13.255 2.83604 14.3965 2.90516C15.8783 2.99734 17.0074 4.24519 16.9188 5.69158V5.69335Z" fill="#1C241C" stroke="#1C241C" stroke-width="0.531758" stroke-miterlimit="10"/>
<path d="M14.7034 5.22724C14.6768 5.65087 14.3063 5.9717 13.8738 5.94334C13.4413 5.91675 13.1116 5.55161 13.1382 5.12975C13.1648 4.70789 13.5353 4.38706 13.9678 4.41365C14.4003 4.44201 14.7299 4.80538 14.7034 5.22724Z" fill="#1C241C" stroke="#1C241C" stroke-width="0.531758" stroke-miterlimit="10"/>
<path d="M14.0547 1.15211C10.5859 0.397018 7.11707 0.480326 5.78059 1.15211C5.18325 1.45344 5.56257 5.31932 5.78059 5.44163C5.77173 5.44694 5.76286 5.45049 5.754 5.45581C6.20777 5.64724 7.12062 6.16836 10.281 5.93971C10.7011 6.40411 8.71766 6.93941 6.13332 6.99968C4.38384 7.03867 3.91057 6.95891 3.87512 6.89333C3.27246 7.49244 2.69462 8.2174 2.19477 9.03808C2.89846 9.35182 4.15518 9.71519 6.69521 9.55566C7.18266 10.0573 4.70467 11.9379 1.71973 11.9876C1.42904 11.9929 1.16848 11.9876 0.939821 11.9698C0.780293 12.5796 0.673942 13.2142 0.636719 13.8664C1.28192 13.9249 2.33657 13.87 4.15164 13.2301C4.65149 13.5031 3.13421 15.4901 0.794474 16.1991C0.860057 16.5341 0.945138 16.8709 1.05149 17.2094C1.10998 17.3955 1.17734 17.5799 1.25001 17.7607C1.85622 17.688 2.64499 17.5161 3.68369 17.1492C4.04174 17.3441 3.36286 18.4201 2.08665 19.2744C2.55105 19.932 3.11825 20.5329 3.76168 21.0576C4.46183 21.6319 5.2506 22.1176 6.09078 22.4951C6.62431 22.7326 7.18088 22.9294 7.74809 23.0747C8.14159 23.1757 8.54041 23.2537 8.94278 23.3051C11.3428 23.6153 13.8243 23.002 15.6996 21.0771C16.8536 19.893 17.4243 18.8153 17.6051 17.8369C18.5162 15.6868 18.5499 12.2907 17.5732 10.589C17.0255 10.9134 16.3909 11.2254 15.7209 11.4629C15.5667 11.8812 15.3965 12.4307 15.2973 13.0085C14.9038 12.6647 14.5174 12.3616 14.1753 12.0921C14.0813 12.0177 13.9909 11.9486 13.9058 11.8812C13.3723 11.9291 12.8441 11.9007 12.3478 11.7695C9.6571 11.0552 10.6621 8.81474 13.5088 9.97752C15.7794 10.9046 18.4488 9.67265 19.2695 9.24192C19.5194 9.0629 19.7481 8.85551 19.9502 8.62154C22.3697 5.81208 17.5218 1.90721 14.053 1.15389L14.0547 1.15211ZM12.44 18.4626C14.0778 16.0874 13.1419 13.8664 12.1776 12.6789C14.0051 13.2071 15.2902 14.9122 15.1697 16.8478C15.0296 19.0972 13.0515 20.8041 10.749 20.6605C8.44647 20.5187 6.69344 18.5814 6.83347 16.332C6.89196 15.389 7.27306 14.5418 7.86685 13.8859C9.30792 12.6274 12.4666 16.9347 12.44 18.4626Z" fill="white" stroke="#1C241C" stroke-width="0.70901" stroke-linejoin="round"/>
<path d="M32.6371 8.58965C33.6634 8.58965 34.4699 8.80058 35.0584 9.22422C35.6469 9.64608 36.0616 10.2133 36.3027 10.9223C36.5597 11.6313 36.6873 12.4236 36.6873 13.2993V19.6591C36.6873 19.9161 36.5969 20.1341 36.4162 20.3149C36.2495 20.4957 36.0386 20.5861 35.7816 20.5861C35.5246 20.5861 35.3066 20.4957 35.1258 20.3149C34.9591 20.1341 34.8776 19.9143 34.8776 19.6591V13.3436C34.8776 12.7693 34.7872 12.257 34.6064 11.805C34.4398 11.3371 34.1544 10.9684 33.7467 10.6954C33.355 10.4083 32.8108 10.2647 32.1178 10.2647C31.4832 10.2647 30.9036 10.4083 30.3754 10.6954C29.8472 10.9666 29.4253 11.3371 29.108 11.805C28.7907 12.257 28.633 12.771 28.633 13.3436V19.6591C28.633 19.9161 28.5426 20.1341 28.3618 20.3149C28.1952 20.4957 27.9842 20.5861 27.7272 20.5861C27.4702 20.5861 27.2522 20.4957 27.0714 20.3149C26.9048 20.1341 26.8232 19.9143 26.8232 19.6591V9.78788C26.8232 9.53086 26.9065 9.31993 27.0714 9.15332C27.2522 8.97252 27.472 8.88212 27.7272 8.88212C27.9984 8.88212 28.2182 8.97252 28.3831 9.15332C28.5497 9.31993 28.6312 9.53086 28.6312 9.78788V11.3956L28.1792 11.8936C28.2554 11.5019 28.4291 11.1084 28.7003 10.7167C28.9715 10.309 29.3119 9.94741 29.7195 9.63013C30.1272 9.31284 30.5792 9.06469 31.0773 8.88389C31.5754 8.68714 32.0965 8.58965 32.6389 8.58965H32.6371ZM49.6817 8.77045C49.9388 8.77045 50.1497 8.86085 50.3163 9.04165C50.4971 9.20826 50.5875 9.41919 50.5875 9.67621V19.6591C50.5875 19.9161 50.4971 20.1341 50.3163 20.3149C50.1497 20.4957 49.9388 20.5861 49.6817 20.5861C49.4105 20.5861 49.1907 20.4957 49.0259 20.3149C48.8593 20.1341 48.776 19.9143 48.776 19.6591V17.509L49.2067 17.4647C49.2067 17.7962 49.0933 18.1595 48.8664 18.5512C48.6395 18.943 48.3311 19.3134 47.9376 19.6608C47.5458 19.9923 47.0779 20.2724 46.5337 20.4975C46.0055 20.7084 45.433 20.8148 44.8126 20.8148C43.7863 20.8148 42.8664 20.5507 42.051 20.0224C41.2357 19.4783 40.5869 18.748 40.1048 17.8263C39.6368 16.9063 39.4029 15.857 39.4029 14.6801C39.4029 13.5031 39.6368 12.4396 40.1048 11.5338C40.5869 10.6139 41.2374 9.896 42.051 9.38374C42.8664 8.85553 43.7721 8.59143 44.7665 8.59143C45.4153 8.59143 46.0197 8.69778 46.578 8.90871C47.1364 9.11964 47.6185 9.40679 48.0262 9.76838C48.4481 10.13 48.7724 10.5306 48.9993 10.9684C49.2404 11.4062 49.3609 11.844 49.3609 12.2818L48.7724 12.1453V9.67798C48.7724 9.42097 48.8557 9.21004 49.0224 9.04342C49.189 8.86262 49.407 8.77222 49.6782 8.77222L49.6817 8.77045ZM45.0182 19.138C45.7733 19.138 46.4362 18.9412 47.0105 18.5495C47.599 18.1577 48.051 17.6295 48.3683 16.9648C48.6998 16.286 48.8664 15.5238 48.8664 14.6783C48.8664 13.8328 48.6998 13.1007 48.3683 12.4378C48.051 11.7589 47.599 11.2307 47.0105 10.8532C46.4362 10.4614 45.7733 10.2647 45.0182 10.2647C44.2631 10.2647 43.6144 10.4526 43.0259 10.8301C42.4516 11.2077 41.9996 11.7288 41.6681 12.3917C41.3367 13.0564 41.1701 13.8186 41.1701 14.6783C41.1701 15.538 41.3278 16.286 41.6451 16.9648C41.9766 17.6295 42.4303 18.1577 43.0029 18.5495C43.5913 18.9412 44.2631 19.138 45.0182 19.138ZM53.4891 8.95302H58.8085C59.0495 8.95302 59.2463 9.03633 59.3969 9.20117C59.5636 9.36779 59.6451 9.56277 59.6451 9.78965C59.6451 10.0307 59.5618 10.2346 59.3969 10.4012C59.2463 10.5518 59.0495 10.6281 58.8085 10.6281H53.4891C53.2622 10.6281 53.0673 10.5447 52.9006 10.3799C52.734 10.2133 52.6507 10.0094 52.6507 9.76838C52.6507 9.5415 52.734 9.35361 52.9006 9.20295C53.0673 9.03633 53.2622 8.95479 53.4891 8.95479V8.95302ZM55.8661 5.87414C56.1231 5.87414 56.334 5.96454 56.5006 6.14534C56.6673 6.31196 56.7506 6.52289 56.7506 6.7799V17.7128C56.7506 18.0744 56.8037 18.3474 56.9083 18.5282C57.0147 18.709 57.1494 18.8384 57.316 18.9128C57.4968 18.9731 57.6705 19.0032 57.8371 19.0032C57.9878 19.0032 58.1154 18.9802 58.2218 18.9359C58.3423 18.8756 58.4788 18.8455 58.6294 18.8455C58.7801 18.8455 58.9166 18.9217 59.0371 19.0724C59.1736 19.2089 59.241 19.3897 59.241 19.6148C59.241 19.886 59.0832 20.1199 58.7659 20.3167C58.4487 20.4975 58.0941 20.5879 57.7024 20.5879C57.4915 20.5879 57.2274 20.5719 56.9101 20.5418C56.6088 20.5117 56.3057 20.4142 56.0043 20.2476C55.703 20.0809 55.446 19.8097 55.2351 19.4322C55.0383 19.0405 54.9408 18.4963 54.9408 17.8032V6.77813C54.9408 6.52112 55.0312 6.31018 55.212 6.14357C55.3928 5.96277 55.6126 5.87237 55.8679 5.87237L55.8661 5.87414ZM63.908 19.6591C63.908 19.9161 63.8176 20.1341 63.6368 20.3149C63.4702 20.4957 63.2593 20.5861 63.0023 20.5861C62.7311 20.5861 62.5113 20.4957 62.3464 20.3149C62.1798 20.1341 62.0965 19.9143 62.0965 19.6591V9.60708C62.0965 9.35007 62.1798 9.13914 62.3464 8.97252C62.5272 8.79172 62.747 8.70132 63.0023 8.70132C63.2575 8.70132 63.4702 8.79172 63.6368 8.97252C63.8176 9.13914 63.908 9.35007 63.908 9.60708V19.6573V19.6591ZM63.0023 7.18758C62.6247 7.18758 62.3464 7.11137 62.1639 6.9607C61.9831 6.81004 61.8927 6.57606 61.8927 6.25878V5.9415C61.8927 5.62422 61.9902 5.39024 62.1869 5.23958C62.3837 5.08891 62.6619 5.0127 63.0253 5.0127C63.3887 5.0127 63.6599 5.08891 63.8407 5.23958C64.0215 5.39024 64.1119 5.62422 64.1119 5.9415V6.25878C64.1119 6.57606 64.0144 6.81004 63.8176 6.9607C63.6368 7.11137 63.3656 7.18758 63.0023 7.18758ZM67.1606 8.68182C67.3414 8.68182 67.5151 8.735 67.6817 8.83958C67.8484 8.92998 67.9689 9.06646 68.0433 9.24726L71.8011 18.0744L71.4395 18.2552L75.2646 9.26853C75.4312 8.86085 75.7095 8.6641 76.103 8.68005C76.3299 8.68005 76.5249 8.75627 76.6915 8.90693C76.8581 9.0576 76.9396 9.24726 76.9396 9.47237C76.9396 9.56277 76.9255 9.65317 76.8953 9.74357C76.8794 9.81979 76.8581 9.88714 76.828 9.94741L72.4587 19.9976C72.2921 20.3752 72.028 20.5702 71.6664 20.5861C71.4696 20.6021 71.2817 20.5631 71.0992 20.4727C70.9325 20.3663 70.8138 20.2086 70.7376 19.9976L66.3683 9.97045C66.3382 9.91018 66.308 9.84283 66.2779 9.76661C66.2637 9.69039 66.2549 9.59999 66.2549 9.49541C66.2549 9.29866 66.3293 9.11787 66.4817 8.95302C66.6484 8.77222 66.8735 8.68182 67.1606 8.68182ZM84.6838 20.8148C83.4767 20.8148 82.4203 20.5577 81.5145 20.0455C80.6088 19.5332 79.8998 18.8313 79.3875 17.9397C78.8894 17.034 78.6395 15.9935 78.6395 14.8165C78.6395 13.5031 78.8965 12.3864 79.4088 11.4665C79.937 10.5306 80.6159 9.82156 81.4454 9.33943C82.2891 8.84135 83.1807 8.5932 84.1166 8.5932C84.8114 8.5932 85.4832 8.72082 86.132 8.97784C86.7807 9.23485 87.3532 9.6124 87.8513 10.1105C88.3494 10.5926 88.7482 11.1811 89.0513 11.8759C89.3544 12.5548 89.5122 13.317 89.5263 14.1625C89.5263 14.4035 89.4359 14.6074 89.2551 14.774C89.0743 14.9406 88.8634 15.0221 88.6206 15.0221H79.68L79.2723 13.4606H87.986L87.6244 13.7778V13.2798C87.5642 12.6611 87.3532 12.1329 86.9916 11.6951C86.6442 11.2431 86.2135 10.8957 85.7012 10.6546C85.2032 10.4136 84.6749 10.293 84.1166 10.293C83.6646 10.293 83.2108 10.3764 82.7588 10.5412C82.321 10.6919 81.9204 10.9489 81.5588 11.3105C81.2114 11.6579 80.9261 12.1099 80.6992 12.6682C80.4882 13.2266 80.3819 13.8984 80.3819 14.6836C80.3819 15.5592 80.5556 16.3285 80.903 16.9932C81.2646 17.6579 81.7627 18.1861 82.3972 18.5778C83.03 18.9554 83.7692 19.1433 84.6147 19.1433C85.1429 19.1433 85.6037 19.0759 85.9955 18.9394C86.3872 18.8029 86.7275 18.6381 87.0147 18.4414C87.3018 18.2304 87.5429 18.0195 87.7396 17.8068C87.9364 17.6703 88.1243 17.6029 88.3068 17.6029C88.532 17.6029 88.7145 17.6792 88.8492 17.8298C88.9999 17.9805 89.0761 18.1613 89.0761 18.374C89.0761 18.631 88.9556 18.8561 88.7145 19.0529C88.2927 19.5208 87.7184 19.9356 86.9952 20.2972C86.2702 20.6446 85.5009 20.8183 84.6856 20.8183L84.6838 20.8148Z" fill="#1C241C"/>
<path d="M5.70801 5.43811C5.72396 5.44343 5.73814 5.45052 5.75409 5.45584L5.70801 5.43811Z" fill="#12CDAB"/>
<path d="M3.87458 6.8933C3.86926 6.88089 3.87812 6.87025 3.89585 6.85962L3.87458 6.8933Z" fill="#12CDAB"/>
<path d="M19.1452 7.80449C19.3313 7.81512 19.489 7.67864 19.5015 7.49784C19.5121 7.31704 19.3721 7.16106 19.1859 7.14865C18.9998 7.13802 18.8421 7.2745 18.8297 7.4553C18.819 7.6361 18.9591 7.79208 19.1452 7.80449Z" fill="#1C241C"/>
<path d="M19.2798 9.23658C19.0405 9.56981 18.4094 10.0909 17.5746 10.5855C17.0269 10.9098 16.3923 11.2218 15.7223 11.4593C15.1338 11.6703 14.517 11.8227 13.9072 11.8776C13.3737 11.9255 12.8455 11.8971 12.3492 11.766C9.65849 11.0516 10.6635 8.81117 13.5102 9.97395C15.7808 10.901 18.4502 9.66907 19.2709 9.23835C19.2744 9.23835 19.2762 9.2348 19.2798 9.23303V9.23658Z" fill="#1C241C"/>
<path d="M1.71936 11.9876C1.42867 11.9929 1.16811 11.9876 0.939453 11.9698C1.21774 10.9046 1.6591 9.91726 2.1944 9.03809C2.89809 9.35182 4.15482 9.71519 6.69484 9.55566C7.18229 10.0573 4.7043 11.9379 1.71936 11.9876Z" fill="#1C241C"/>
<path d="M0.794091 16.1974C0.638108 15.4015 0.592023 14.6198 0.638108 13.8647C1.28331 13.9232 2.33796 13.8683 4.15303 13.2284C4.65288 13.5014 3.1356 15.4884 0.795863 16.1974H0.794091Z" fill="#1C241C"/>
<path d="M6.1332 6.99968C4.38371 7.03868 3.91045 6.95891 3.875 6.89333C4.49716 6.27117 5.1459 5.78196 5.75388 5.45581C6.20764 5.64724 7.1205 6.16837 10.2809 5.93971C10.701 6.40411 8.71754 6.93941 6.1332 6.99968Z" fill="#1C241C"/>
<path d="M2.08761 19.2727C1.75083 18.7977 1.46722 18.289 1.25098 17.759C1.85718 17.6863 2.64595 17.5144 3.68466 17.1475C4.04271 17.3424 3.36383 18.4184 2.08761 19.2727Z" fill="#1C241C"/>
<path d="M19.2798 9.23658C19.0405 9.56981 18.4094 10.0909 17.5746 10.5855C17.0269 10.9098 16.3923 11.2218 15.7223 11.4593C15.1338 11.6703 14.517 11.8227 13.9072 11.8776C13.3737 11.9255 12.8455 11.8971 12.3492 11.766C9.65849 11.0516 10.6635 8.81117 13.5102 9.97395C15.7808 10.901 18.4502 9.66907 19.2709 9.23835C19.2744 9.23835 19.2762 9.2348 19.2798 9.23303V9.23658Z" stroke="#1C241C" stroke-width="0.70901" stroke-miterlimit="10"/>
<path d="M1.71936 11.9876C1.42867 11.9929 1.16811 11.9876 0.939453 11.9698C1.21774 10.9046 1.6591 9.91726 2.1944 9.03809C2.89809 9.35182 4.15482 9.71519 6.69484 9.55566C7.18229 10.0573 4.7043 11.9379 1.71936 11.9876Z" stroke="#1C241C" stroke-width="0.70901" stroke-miterlimit="10"/>
<path d="M0.794091 16.1974C0.638108 15.4015 0.592023 14.6198 0.638108 13.8647C1.28331 13.9232 2.33796 13.8683 4.15303 13.2284C4.65288 13.5014 3.1356 15.4884 0.795863 16.1974H0.794091Z" stroke="#1C241C" stroke-width="0.70901" stroke-miterlimit="10"/>
<path d="M6.1332 6.99968C4.38371 7.03868 3.91045 6.95891 3.875 6.89333C4.49716 6.27117 5.1459 5.78196 5.75388 5.45581C6.20764 5.64724 7.1205 6.16837 10.2809 5.93971C10.701 6.40411 8.71754 6.93941 6.1332 6.99968Z" stroke="#1C241C" stroke-width="0.70901" stroke-miterlimit="10"/>
<path d="M2.08761 19.2727C1.75083 18.7977 1.46722 18.289 1.25098 17.759C1.85718 17.6863 2.64595 17.5144 3.68466 17.1475C4.04271 17.3424 3.36383 18.4184 2.08761 19.2727Z" stroke="#1C241C" stroke-width="0.70901" stroke-miterlimit="10"/>
<path d="M16.9188 5.69335C16.8869 6.20206 16.7079 6.66824 16.426 7.05465C15.9067 7.7672 15.0328 8.20679 14.0721 8.1483C12.5903 8.05613 11.4612 6.80827 11.5498 5.36189C11.5711 5.02688 11.6562 4.71137 11.7909 4.42422C12.2411 3.4706 13.255 2.83604 14.3965 2.90516C15.8783 2.99734 17.0074 4.24519 16.9188 5.69158V5.69335Z" fill="#1C241C"/>
<path d="M14.7034 5.22724C14.6768 5.65087 14.3063 5.9717 13.8738 5.94334C13.4413 5.91675 13.1116 5.55161 13.1382 5.12975C13.1648 4.70789 13.5353 4.38706 13.9678 4.41365C14.4003 4.44201 14.7299 4.80538 14.7034 5.22724Z" fill="white"/>
</g>
<defs>
<clipPath id="clip0_594_2560">
<rect width="89.5303" height="24" fill="white"/>
</clipPath>
</defs>
</svg>
