<svg width="123" height="37" viewBox="0 0 123 37" fill="none" xmlns="http://www.w3.org/2000/svg">
<path d="M115.164 28.2851C110.666 28.2851 108.067 24.8204 108.067 18.9527C108.067 12.9453 110.722 9.59238 115.164 9.59238C119.635 9.59238 122.234 13.0571 122.234 18.9527C122.234 24.9601 119.579 28.2851 115.164 28.2851ZM115.164 25.7425C117.763 25.7425 119.188 23.3395 119.188 18.9527C119.188 14.5939 117.735 12.135 115.164 12.135C112.566 12.135 111.113 14.538 111.113 18.9527C111.113 23.2557 112.566 25.7425 115.164 25.7425Z" fill="black"/>
<path d="M107.792 9.57913H93.249V12.0491H99.1534V17.0747L95.0293 19.9049L96.1949 21.6208L99.1534 19.5979V21.7876L95.0293 24.6178L96.1949 26.3337L99.1534 24.3108V28.2983H101.915V22.6751L106.039 19.8449L104.872 18.1281L101.915 20.1759V17.9622L106.039 15.132L104.872 13.4152L101.915 15.463V12.0491H107.792V9.57913Z" fill="black"/>
<path d="M77.6797 27.9471V9.63034H83.9559C89.6933 9.63034 93.2489 13.0782 93.2489 18.8156C93.2489 24.5531 89.6933 27.9471 83.9559 27.9471H77.6797ZM83.9559 25.4959C87.8616 25.4959 90.1782 23.0177 90.1782 18.8156C90.1782 14.5597 87.8616 12.0816 83.9559 12.0816H80.6966V25.4959H83.9559Z" fill="black"/>
<path d="M64.4771 14.3847C64.4771 19.1241 75.3856 15.3908 75.3856 22.7514C75.3856 26.2993 72.4996 28.2851 68.5545 28.2851C64.5565 28.2851 61.8029 26.4582 61.0615 22.6985H64.1593C64.6624 24.7372 66.1716 25.8492 68.581 25.8492C71.0433 25.8492 72.3407 24.7637 72.3407 23.1486C72.3407 18.065 61.4322 21.8512 61.4322 14.623C61.4322 11.9224 63.7092 9.59238 67.8132 9.59238C71.3611 9.59238 74.2735 11.2869 74.909 15.232H71.7582C71.2552 13.0079 69.8519 12.0283 67.7337 12.0283C65.6685 12.0283 64.4771 12.955 64.4771 14.3847Z" fill="black"/>
<path d="M59.1371 20.9423C59.1371 25.5046 56.2756 28.2851 51.6594 28.2851C47.0432 28.2851 44.1816 25.5046 44.1816 20.9423V9.57724H47.2051V20.9423C47.2051 24.0198 48.8789 25.8555 51.6594 25.8555C54.4669 25.8555 56.1136 23.9928 56.1136 20.9423V9.57724H59.1371V20.9423Z" fill="black"/>
<path fill-rule="evenodd" clip-rule="evenodd" d="M18 36.9863C27.9411 36.9863 36 28.9275 36 18.9863C36 9.0452 27.9411 0.986328 18 0.986328C8.05887 0.986328 0 9.0452 0 18.9863C0 28.9275 8.05887 36.9863 18 36.9863ZM8.79545 9.57724H27.2045V13.6681H20.0455V17.7591H15.9546V13.6681H8.79545V9.57724ZM15.9546 17.7591V25.9409H11.8636V17.7591H15.9546ZM20.0455 17.7591H24.1364V25.9409H20.0461V30.0318H15.9552V25.9409H20.0455V17.7591Z" fill="#00B988"/>
</svg>