<svg width="125" height="32" viewBox="0 0 125 32" fill="none" xmlns="http://www.w3.org/2000/svg">
<g clip-path="url(#clip0_87_88)">
<path d="M124.276 14.9812L121.783 15.1347C121.74 14.9216 121.649 14.7298 121.508 14.5594C121.368 14.3847 121.182 14.2462 120.952 14.1439C120.726 14.0374 120.456 13.9841 120.14 13.9841C119.718 13.9841 119.363 14.0736 119.073 14.2525C118.783 14.4273 118.638 14.6616 118.638 14.9557C118.638 15.19 118.732 15.3882 118.919 15.5501C119.107 15.7121 119.429 15.842 119.885 15.94L121.662 16.298C122.616 16.494 123.328 16.8094 123.797 17.244C124.265 17.6787 124.5 18.2497 124.5 18.9571C124.5 19.6006 124.31 20.1652 123.931 20.651C123.556 21.1368 123.04 21.516 122.384 21.7888C121.732 22.0572 120.98 22.1915 120.128 22.1915C118.828 22.1915 117.792 21.9209 117.021 21.3797C116.254 20.8342 115.804 20.0927 115.672 19.1552L118.351 19.0146C118.432 19.4109 118.628 19.7135 118.939 19.9223C119.25 20.1268 119.648 20.2291 120.134 20.2291C120.611 20.2291 120.995 20.1375 121.285 19.9543C121.579 19.7668 121.728 19.526 121.732 19.232C121.728 18.9848 121.623 18.7824 121.419 18.6247C121.214 18.4628 120.899 18.3392 120.473 18.254L118.772 17.9152C117.814 17.7234 117.1 17.391 116.631 16.918C116.167 16.445 115.934 15.842 115.934 15.1091C115.934 14.4784 116.105 13.9351 116.446 13.4791C116.791 13.0231 117.275 12.6716 117.897 12.4244C118.523 12.1773 119.256 12.0537 120.096 12.0537C121.336 12.0537 122.312 12.3158 123.023 12.8399C123.739 13.3641 124.157 14.0778 124.276 14.9812Z" fill="#21201C"/>
<path d="M115.256 12.1818V14.2273H109.344V12.1818H115.256ZM110.686 9.82959H113.409V18.983C113.409 19.2344 113.447 19.4304 113.524 19.571C113.601 19.7074 113.707 19.8033 113.844 19.8587C113.984 19.9141 114.146 19.9418 114.329 19.9418C114.457 19.9418 114.585 19.9311 114.713 19.9098C114.841 19.8842 114.939 19.8652 115.007 19.8524L115.435 21.8786C115.299 21.9212 115.107 21.9703 114.86 22.0257C114.613 22.0853 114.312 22.1214 113.959 22.1342C113.302 22.1598 112.727 22.0724 112.233 21.8722C111.743 21.6719 111.361 21.3608 111.089 20.9389C110.816 20.517 110.682 19.9844 110.686 19.341V9.82959Z" fill="#21201C"/>
<path d="M102.36 16.3236V21.9997H99.6367V12.1815H102.232V13.9138H102.347C102.564 13.3427 102.929 12.891 103.44 12.5587C103.951 12.222 104.571 12.0537 105.3 12.0537C105.982 12.0537 106.576 12.2028 107.083 12.5011C107.59 12.7994 107.985 13.2256 108.266 13.7795C108.547 14.3293 108.688 14.9855 108.688 15.7483V21.9997H105.965V16.2341C105.969 15.6332 105.816 15.1645 105.505 14.8278C105.193 14.4869 104.765 14.3165 104.22 14.3165C103.853 14.3165 103.529 14.3953 103.248 14.553C102.971 14.7106 102.754 14.9408 102.596 15.2433C102.443 15.5416 102.364 15.9017 102.36 16.3236Z" fill="#21201C"/>
<path d="M94.1535 22.1915C93.1435 22.1915 92.2742 21.9869 91.5455 21.5778C90.8211 21.1645 90.2628 20.5807 89.8708 19.8264C89.4788 19.0679 89.2827 18.1709 89.2827 17.1354C89.2827 16.1254 89.4788 15.2391 89.8708 14.4763C90.2628 13.7135 90.8147 13.119 91.5263 12.6929C92.2422 12.2668 93.0817 12.0537 94.0448 12.0537C94.6925 12.0537 95.2955 12.1581 95.8538 12.3669C96.4163 12.5714 96.9063 12.8804 97.3239 13.2937C97.7458 13.7071 98.0739 14.227 98.3083 14.8534C98.5427 15.4756 98.6599 16.2043 98.6599 17.0395V17.7874H90.3694V16.0999H96.0967C96.0967 15.7078 96.0114 15.3605 95.841 15.0579C95.6705 14.7554 95.434 14.5189 95.1315 14.3484C94.8332 14.1737 94.4859 14.0864 94.0896 14.0864C93.6762 14.0864 93.3097 14.1822 92.9901 14.374C92.6748 14.5615 92.4276 14.815 92.2486 15.1347C92.0697 15.45 91.978 15.8016 91.9738 16.1893V17.7937C91.9738 18.2795 92.0633 18.6993 92.2423 19.053C92.4255 19.4067 92.6833 19.6794 93.0157 19.8712C93.3481 20.0629 93.7422 20.1588 94.1982 20.1588C94.5008 20.1588 94.7778 20.1162 95.0292 20.031C95.2806 19.9457 95.4958 19.8179 95.6748 19.6474C95.8538 19.477 95.9901 19.2682 96.0839 19.021L98.6023 19.1872C98.4745 19.7923 98.2124 20.3207 97.8161 20.7724C97.4241 21.2199 96.917 21.5693 96.2948 21.8207C95.6769 22.0679 94.9631 22.1915 94.1535 22.1915Z" fill="#21201C"/>
<path d="M88.8105 12.1818V14.2273H82.8979V12.1818H88.8105ZM84.2402 9.82959H86.9632V18.983C86.9632 19.2344 87.0016 19.4304 87.0783 19.571C87.155 19.7074 87.2615 19.8033 87.3979 19.8587C87.5385 19.9141 87.7004 19.9418 87.8837 19.9418C88.0115 19.9418 88.1394 19.9311 88.2672 19.9098C88.395 19.8842 88.4931 19.8652 88.5612 19.8524L88.9895 21.8786C88.8531 21.9212 88.6614 21.9703 88.4142 22.0257C88.1671 22.0853 87.8666 22.1214 87.5129 22.1342C86.8567 22.1598 86.2814 22.0724 85.7871 21.8722C85.297 21.6719 84.9156 21.3608 84.6429 20.9389C84.3702 20.517 84.236 19.9844 84.2402 19.341V9.82959Z" fill="#21201C"/>
<path d="M75.9139 16.3236V21.9997H73.1909V12.1815H75.7861V13.9138H75.9011C76.1185 13.3427 76.4828 12.891 76.9942 12.5587C77.5055 12.222 78.1256 12.0537 78.8543 12.0537C79.5361 12.0537 80.1305 12.2028 80.6377 12.5011C81.1448 12.7994 81.5389 13.2256 81.8202 13.7795C82.1014 14.3293 82.2421 14.9855 82.2421 15.7483V21.9997H79.519V16.2341C79.5233 15.6332 79.3699 15.1645 79.0588 14.8278C78.7477 14.4869 78.3195 14.3165 77.774 14.3165C77.4075 14.3165 77.0837 14.3953 76.8024 14.553C76.5254 14.7106 76.3081 14.9408 76.1504 15.2433C75.997 15.5416 75.9182 15.9017 75.9139 16.3236Z" fill="#21201C"/>
<path d="M69.0866 21.9999V12.1817H71.8097V21.9999H69.0866ZM70.4545 10.9161C70.0497 10.9161 69.7024 10.7819 69.4126 10.5134C69.1271 10.2407 68.9844 9.91469 68.9844 9.53542C68.9844 9.16042 69.1271 8.83869 69.4126 8.57023C69.7024 8.2975 70.0497 8.16113 70.4545 8.16113C70.8594 8.16113 71.2045 8.2975 71.4901 8.57023C71.7798 8.83869 71.9247 9.16042 71.9247 9.53542C71.9247 9.91469 71.7798 10.2407 71.4901 10.5134C71.2045 10.7819 70.8594 10.9161 70.4545 10.9161Z" fill="#21201C"/>
<path d="M0 10C0 4.47715 4.47715 0 10 0H47.4575C50.9054 0 54.1101 1.7762 55.9375 4.70001L63 16L55.9375 27.3C54.1101 30.2238 50.9054 32 47.4575 32H10C4.47715 32 0 27.5228 0 22L0 10Z" fill="#4DD092"/>
<path d="M48.7428 21.2659C46.0343 21.2659 44.4692 19.1796 44.4692 15.6462C44.4692 12.0288 46.068 10.0098 48.7428 10.0098C51.4351 10.0098 53.0001 12.0961 53.0001 15.6462C53.0001 19.2637 51.4014 21.2659 48.7428 21.2659ZM48.7428 19.7348C50.3079 19.7348 51.1659 18.2878 51.1659 15.6462C51.1659 13.0215 50.291 11.5408 48.7428 11.5408C47.1784 11.5408 46.3034 12.9879 46.3034 15.6462C46.3034 18.2374 47.1784 19.7348 48.7428 19.7348Z" fill="#21201C"/>
<path d="M44.3037 10.001H35.5464V11.4883H39.1018V14.5146L36.6184 16.2188L37.3203 17.2521L39.1018 16.034V17.3525L36.6184 19.0568L37.3203 20.09L39.1018 18.8719V21.2731H40.7648V17.8869L43.2481 16.1827L42.5454 15.1489L40.7648 16.382V15.049L43.2481 13.3447L42.5454 12.3109L40.7648 13.5441V11.4883H44.3037V10.001Z" fill="#21201C"/>
<path d="M26.1714 21.062V10.0322H29.9507C33.4056 10.0322 35.5467 12.1084 35.5467 15.5633C35.5467 19.0182 33.4056 21.062 29.9507 21.062H26.1714ZM29.9507 19.5859C32.3026 19.5859 33.6976 18.0937 33.6976 15.5633C33.6976 13.0005 32.3026 11.5083 29.9507 11.5083H27.9881V19.5859H29.9507Z" fill="#21201C"/>
<path d="M18.2218 12.8955C18.2218 15.7495 24.7905 13.5014 24.7905 17.9337C24.7905 20.0701 23.0527 21.2659 20.6771 21.2659C18.2696 21.2659 16.6115 20.1658 16.165 17.9018H18.0304C18.3334 19.1295 19.2422 19.7991 20.693 19.7991C22.1758 19.7991 22.957 19.1454 22.957 18.1729C22.957 15.1117 16.3883 17.3916 16.3883 13.039C16.3883 11.4128 17.7594 10.0098 20.2307 10.0098C22.3671 10.0098 24.1209 11.0302 24.5036 13.4058H22.6062C22.3034 12.0665 21.4583 11.4766 20.1828 11.4766C18.9392 11.4766 18.2218 12.0346 18.2218 12.8955Z" fill="#21201C"/>
<path d="M15.0057 16.8437C15.0057 19.5909 13.2826 21.2653 10.5029 21.2653C7.72316 21.2653 6 19.5909 6 16.8437V10H7.82065V16.8437C7.82065 18.6968 8.82856 19.8022 10.5029 19.8022C12.1935 19.8022 13.1851 18.6806 13.1851 16.8437V10H15.0057V16.8437Z" fill="#21201C"/>
</g>
<defs>
<clipPath id="clip0_87_88">
<rect width="125" height="32" fill="white"/>
</clipPath>
</defs>
</svg>
